<svg width="425" height="282" viewBox="0 0 425 282" fill="none" xmlns="http://www.w3.org/2000/svg">
<path d="M41.7044 281.773C57.5723 281.773 70.4358 268.91 70.4358 253.042C70.4358 237.174 57.5723 224.311 41.7044 224.311C25.8365 224.311 12.973 237.174 12.973 253.042C12.973 268.91 25.8365 281.773 41.7044 281.773Z" fill="#F2F2F2"/>
<path d="M46.3761 277.569C62.2441 277.569 75.1076 264.705 75.1076 248.837C75.1076 232.969 62.2441 220.106 46.3761 220.106C30.5082 220.106 17.6447 232.969 17.6447 248.837C17.6447 264.705 30.5082 277.569 46.3761 277.569Z" fill="#FFFDF4"/>
<path d="M425 217.046H69.515V218.016H425V217.046Z" fill="#3F3D56"/>
<path d="M253.621 9.04589H127.446V6.44531H70.2331V9.04589H-56.4623C-57.5831 9.04589 -58.693 9.26665 -59.7285 9.69556C-60.7639 10.1245 -61.7048 10.7531 -62.4973 11.5457C-63.2899 12.3382 -63.9185 13.2791 -64.3475 14.3146C-64.7764 15.3501 -64.9971 16.4599 -64.9971 17.5807V190.353C-64.9971 192.617 -64.0979 194.788 -62.4973 196.388C-60.8968 197.989 -58.7259 198.888 -56.4623 198.888H253.621C255.885 198.888 258.056 197.989 259.656 196.388C261.257 194.788 262.156 192.617 262.156 190.353V17.5807C262.156 16.4599 261.935 15.3501 261.506 14.3146C261.077 13.2791 260.449 12.3382 259.656 11.5457C258.864 10.7531 257.923 10.1245 256.887 9.69556C255.852 9.26665 254.742 9.04589 253.621 9.04589Z" fill="#3F3D56"/>
<path d="M250.713 24.1292H-53.5545V195.767H250.713V24.1292Z" fill="#FFFDF4"/>
<path d="M98.3193 19.4482C100.043 19.4482 101.44 18.051 101.44 16.3275C101.44 14.604 100.043 13.2068 98.3193 13.2068C96.5958 13.2068 95.1986 14.604 95.1986 16.3275C95.1986 18.051 96.5958 19.4482 98.3193 19.4482Z" fill="#FFFDF4"/>
<path opacity="0.1" d="M163.698 195.768H-53.5544V24.1294L163.698 195.768Z" fill="#0C1618"/>
<path d="M-5.9457 182.924C10.2071 182.924 23.3015 169.829 23.3015 153.677C23.3015 137.524 10.2071 124.429 -5.9457 124.429C-22.0985 124.429 -35.1929 137.524 -35.1929 153.677C-35.1929 169.829 -22.0985 182.924 -5.9457 182.924Z" fill="#F2F2F2"/>
<path d="M197.735 116.695H169.313V122.634H197.735V116.695Z" fill="#3F3D56"/>
<path d="M232.096 70.4563H134.953V73.0015H232.096V70.4563Z" fill="#3F3D56"/>
<path d="M232.096 78.5164H134.953V81.0616H232.096V78.5164Z" fill="#3F3D56"/>
<path d="M232.096 86.5762H134.953V89.1214H232.096V86.5762Z" fill="#3F3D56"/>
<path d="M232.096 94.6362H134.953V97.1815H232.096V94.6362Z" fill="#3F3D56"/>
<path d="M232.096 102.696H134.953V105.241H232.096V102.696Z" fill="#3F3D56"/>
<path d="M232.096 27.6113H220.218V39.4892H232.096V27.6113Z" fill="#F2F2F2"/>
<path d="M237.611 45.0039H223.188V30.5808H237.611V45.0039ZM223.815 44.3768H236.984V31.2079H223.815V44.3768Z" fill="#3F3D56"/>
<path d="M270.699 192.647H241.005V190.507C241.005 190.452 240.994 190.396 240.972 190.345C240.951 190.293 240.92 190.247 240.88 190.207C240.841 190.168 240.794 190.137 240.743 190.115C240.691 190.094 240.636 190.083 240.58 190.083H230.399C230.344 190.083 230.288 190.094 230.237 190.115C230.186 190.137 230.139 190.168 230.099 190.207C230.06 190.247 230.029 190.293 230.007 190.345C229.986 190.396 229.975 190.452 229.975 190.507V192.647H223.612V190.507C223.612 190.452 223.601 190.396 223.58 190.345C223.558 190.293 223.527 190.247 223.488 190.207C223.448 190.168 223.402 190.137 223.35 190.115C223.299 190.094 223.244 190.083 223.188 190.083H213.007C212.951 190.083 212.896 190.094 212.844 190.115C212.793 190.137 212.746 190.168 212.707 190.207C212.667 190.247 212.636 190.293 212.615 190.345C212.594 190.396 212.583 190.452 212.583 190.507V192.647H206.219V190.507C206.219 190.452 206.209 190.396 206.187 190.345C206.166 190.293 206.135 190.247 206.095 190.207C206.056 190.168 206.009 190.137 205.958 190.115C205.906 190.094 205.851 190.083 205.795 190.083H195.614C195.559 190.083 195.503 190.094 195.452 190.115C195.4 190.137 195.354 190.168 195.314 190.207C195.275 190.247 195.244 190.293 195.222 190.345C195.201 190.396 195.19 190.452 195.19 190.507V192.647H188.827V190.507C188.827 190.452 188.816 190.396 188.795 190.345C188.773 190.293 188.742 190.247 188.703 190.207C188.663 190.168 188.617 190.137 188.565 190.115C188.514 190.094 188.458 190.083 188.403 190.083H178.222C178.166 190.083 178.111 190.094 178.059 190.115C178.008 190.137 177.961 190.168 177.922 190.207C177.882 190.247 177.851 190.293 177.83 190.345C177.808 190.396 177.798 190.452 177.798 190.507V192.647H171.434V190.507C171.434 190.452 171.423 190.396 171.402 190.345C171.381 190.293 171.35 190.247 171.31 190.207C171.271 190.168 171.224 190.137 171.173 190.115C171.121 190.094 171.066 190.083 171.01 190.083H160.829C160.773 190.083 160.718 190.094 160.667 190.115C160.615 190.137 160.569 190.168 160.529 190.207C160.49 190.247 160.459 190.293 160.437 190.345C160.416 190.396 160.405 190.452 160.405 190.507V192.647H154.042V190.507C154.042 190.452 154.031 190.396 154.01 190.345C153.988 190.293 153.957 190.247 153.918 190.207C153.878 190.168 153.831 190.137 153.78 190.115C153.729 190.094 153.673 190.083 153.618 190.083H143.437C143.381 190.083 143.326 190.094 143.274 190.115C143.223 190.137 143.176 190.168 143.137 190.207C143.097 190.247 143.066 190.293 143.045 190.345C143.023 190.396 143.012 190.452 143.012 190.507V192.647H136.649V190.507C136.649 190.452 136.638 190.396 136.617 190.345C136.596 190.293 136.564 190.247 136.525 190.207C136.486 190.168 136.439 190.137 136.387 190.115C136.336 190.094 136.281 190.083 136.225 190.083H56.474C56.4183 190.083 56.3631 190.094 56.3116 190.115C56.2602 190.137 56.2134 190.168 56.174 190.207C56.1346 190.247 56.1034 190.293 56.0821 190.345C56.0608 190.396 56.0498 190.452 56.0498 190.507V192.647H49.6867V190.507C49.6867 190.452 49.6757 190.396 49.6544 190.345C49.6331 190.293 49.6018 190.247 49.5624 190.207C49.523 190.168 49.4763 190.137 49.4248 190.115C49.3733 190.094 49.3182 190.083 49.2624 190.083H39.0815C39.0257 190.083 38.9706 190.094 38.9191 190.115C38.8676 190.137 38.8209 190.168 38.7815 190.207C38.7421 190.247 38.7108 190.293 38.6895 190.345C38.6682 190.396 38.6572 190.452 38.6572 190.507V192.647H32.2941V190.507C32.2941 190.452 32.2831 190.396 32.2618 190.345C32.2405 190.293 32.2093 190.247 32.1699 190.207C32.1305 190.168 32.0837 190.137 32.0322 190.115C31.9808 190.094 31.9256 190.083 31.8699 190.083H21.6889C21.6332 190.083 21.578 190.094 21.5266 190.115C21.4751 190.137 21.4283 190.168 21.3889 190.207C21.3496 190.247 21.3183 190.293 21.297 190.345C21.2757 190.396 21.2647 190.452 21.2647 190.507V192.647H14.9016V190.507C14.9016 190.452 14.8906 190.396 14.8693 190.345C14.848 190.293 14.8167 190.247 14.7773 190.207C14.7379 190.168 14.6912 190.137 14.6397 190.115C14.5882 190.094 14.5331 190.083 14.4774 190.083H4.29637C4.24067 190.083 4.18551 190.094 4.13404 190.115C4.08257 190.137 4.0358 190.168 3.99641 190.207C3.95702 190.247 3.92578 190.293 3.90446 190.345C3.88314 190.396 3.87217 190.452 3.87217 190.507V192.647H-2.49093V190.507C-2.49093 190.452 -2.5019 190.396 -2.52322 190.345C-2.54454 190.293 -2.57578 190.247 -2.61517 190.207C-2.65456 190.168 -2.70133 190.137 -2.7528 190.115C-2.80427 190.094 -2.85943 190.083 -2.91514 190.083H-13.0962C-13.1519 190.083 -13.207 190.094 -13.2585 190.115C-13.31 190.137 -13.3567 190.168 -13.3961 190.207C-13.4355 190.247 -13.4668 190.293 -13.4881 190.345C-13.5094 190.396 -13.5204 190.452 -13.5204 190.507V192.647H-19.8835V190.507C-19.8835 190.452 -19.8944 190.396 -19.9158 190.345C-19.9371 190.293 -19.9683 190.247 -20.0077 190.207C-20.0471 190.168 -20.0939 190.137 -20.1454 190.115C-20.1968 190.094 -20.252 190.083 -20.3077 190.083H-30.4887C-30.5444 190.083 -30.5996 190.094 -30.651 190.115C-30.7025 190.137 -30.7493 190.168 -30.7886 190.207C-30.828 190.247 -30.8593 190.293 -30.8806 190.345C-30.9019 190.396 -30.9129 190.452 -30.9129 190.507V192.647H-37.276V190.507C-37.276 190.452 -37.287 190.396 -37.3083 190.345C-37.3296 190.293 -37.3609 190.247 -37.4003 190.207C-37.4397 190.168 -37.4864 190.137 -37.5379 190.115C-37.5894 190.094 -37.6445 190.083 -37.7002 190.083H-47.8812C-47.9369 190.083 -47.9921 190.094 -48.0436 190.115C-48.095 190.137 -48.1418 190.168 -48.1812 190.207C-48.2206 190.247 -48.2518 190.293 -48.2731 190.345C-48.2945 190.396 -48.3054 190.452 -48.3054 190.507V192.647H-67.819C-70.5192 192.647 -73.1087 193.719 -75.0181 195.629C-76.9274 197.538 -78 200.128 -78 202.828V207.431C-78 210.131 -76.9274 212.721 -75.018 214.63C-73.1087 216.54 -70.5192 217.612 -67.819 217.612H270.699C273.399 217.612 275.989 216.54 277.898 214.63C279.807 212.721 280.88 210.131 280.88 207.431V202.828C280.88 200.128 279.807 197.538 277.898 195.629C275.989 193.719 273.399 192.647 270.699 192.647Z" fill="#3F3D56"/>
<path d="M1.13373 171.944C-6.15608 171.944 -13.2822 169.782 -19.3435 165.732C-25.4047 161.682 -30.1289 155.926 -32.9186 149.191C-35.7083 142.456 -36.4382 135.045 -35.016 127.895C-33.5938 120.746 -30.0835 114.178 -24.9288 109.023C-19.7741 103.869 -13.2066 100.358 -6.0569 98.9363C1.09284 97.5141 8.50375 98.244 15.2387 101.034C21.9736 103.823 27.73 108.548 31.78 114.609C35.83 120.67 37.9917 127.796 37.9917 135.086C37.9806 144.858 34.0938 154.226 27.184 161.136C20.2742 168.046 10.9057 171.933 1.13373 171.944ZM1.13373 99.198C-5.96425 99.198 -12.9028 101.303 -18.8046 105.246C-24.7063 109.19 -29.3062 114.795 -32.0225 121.352C-34.7387 127.91 -35.4494 135.126 -34.0647 142.087C-32.68 149.049 -29.262 155.444 -24.2429 160.463C-19.2239 165.482 -12.8293 168.9 -5.86767 170.284C1.09392 171.669 8.3098 170.958 14.8675 168.242C21.4252 165.526 27.0301 160.926 30.9735 155.024C34.9169 149.123 37.0217 142.184 37.0217 135.086C37.011 125.571 33.2265 116.449 26.4985 109.721C19.7705 102.993 10.6485 99.2087 1.13373 99.198Z" fill="#3F3D56"/>
<path d="M329.945 15.7825H206.277V16.7524H329.945V15.7825Z" fill="#3F3D56"/>
<path d="M321.618 10.6694H308.039V24.2487H321.618V10.6694Z" fill="#FFFDF4"/>
<path d="M329.862 16.4891H313.373V0H329.862V16.4891ZM314.09 15.7722H329.145V0.716918H314.09V15.7722Z" fill="#3F3D56"/>
</svg>
