<svg width="535" height="298" viewBox="0 0 535 298" fill="none" xmlns="http://www.w3.org/2000/svg">
<path d="M144.271 296.157H0V297.289H144.271V296.157Z" fill="#3F3D56"/>
<path d="M173.311 238.142H157.469V253.983H173.311V238.142Z" fill="#FFFDF4"/>
<path d="M182.929 244.931H163.693V225.695H182.929V244.931ZM164.529 244.094H182.093V226.531H164.529V244.094Z" fill="#3F3D56"/>
<path d="M516.732 238.142H500.891V253.983H516.732V238.142Z" fill="#FFFDF4"/>
<path d="M526.35 244.931H507.114V225.695H526.35V244.931ZM507.95 244.094H525.514V226.531H507.95V244.094Z" fill="#3F3D56"/>
<path d="M489.106 58.2036H487.761V21.3373C487.761 18.5352 487.209 15.7606 486.137 13.1718C485.064 10.5831 483.493 8.23086 481.511 6.24951C479.53 4.26817 477.178 2.69648 474.589 1.62418C472 0.55189 469.225 -8.17263e-06 466.423 1.47036e-10H388.317C385.515 -1.04016e-05 382.74 0.551882 380.152 1.62418C377.563 2.69647 375.211 4.26817 373.229 6.24951C371.248 8.23086 369.676 10.5831 368.604 13.1718C367.532 15.7606 366.98 18.5352 366.98 21.3373V223.589C366.98 226.391 367.532 229.166 368.604 231.754C369.676 234.343 371.248 236.695 373.229 238.677C375.211 240.658 377.563 242.23 380.152 243.302C382.74 244.374 385.515 244.926 388.317 244.926H466.423C469.226 244.926 472 244.374 474.589 243.302C477.178 242.23 479.53 240.658 481.511 238.677C483.493 236.695 485.064 234.343 486.137 231.754C487.209 229.166 487.761 226.391 487.761 223.589V84.4457H489.106V58.2036Z" fill="#3F3D56"/>
<path d="M483.217 22.5914V224.548C483.218 228.774 481.54 232.828 478.552 235.817C475.564 238.805 471.511 240.485 467.285 240.486H388.802C384.575 240.485 380.523 238.805 377.535 235.817C374.547 232.828 372.869 228.774 372.87 224.548V22.5914C372.87 18.3661 374.549 14.314 377.536 11.3263C380.524 8.33857 384.576 6.65987 388.802 6.65942H398.323C397.855 7.80885 397.676 9.05587 397.803 10.2906C397.93 11.5254 398.358 12.71 399.051 13.7402C399.743 14.7703 400.679 15.6143 401.774 16.1979C402.87 16.7814 404.092 17.0866 405.333 17.0865H450.08C451.321 17.0866 452.543 16.7814 453.639 16.1979C454.735 15.6143 455.67 14.7703 456.362 13.7402C457.055 12.7101 457.483 11.5254 457.61 10.2906C457.737 9.05587 457.558 7.80885 457.09 6.65942H467.285C471.51 6.65988 475.562 8.33857 478.55 11.3263C481.538 14.314 483.217 18.3661 483.217 22.5914Z" fill="#FFFDF4"/>
<path d="M439.733 139.821H416.353V146.749H439.733V139.821Z" fill="#3F3D56"/>
<path d="M467.998 85.8792H388.089V88.8484H467.998V85.8792Z" fill="#3F3D56"/>
<path d="M467.998 95.282H388.089V98.2513H467.998V95.282Z" fill="#3F3D56"/>
<path d="M467.998 104.685H388.089V107.654H467.998V104.685Z" fill="#3F3D56"/>
<path d="M467.998 114.087H388.089V117.057H467.998V114.087Z" fill="#3F3D56"/>
<path d="M467.998 123.49H388.089V126.459H467.998V123.49Z" fill="#3F3D56"/>
<path d="M430.835 46.4473H416.978V60.3039H430.835V46.4473Z" fill="#F2F2F2"/>
<path d="M422.282 49.9121V66.7381H439.108V49.9121H422.282ZM438.379 66.0082H423.012V50.642H438.379V66.0082Z" fill="#3F3D56"/>
<path opacity="0.1" d="M483.217 202.981V224.548C483.218 228.774 481.54 232.827 478.552 235.816C475.564 238.805 471.511 240.485 467.285 240.486H388.802C384.575 240.485 380.523 238.805 377.535 235.816C374.547 232.827 372.869 228.774 372.87 224.548V115.802L438.991 168.039L440.122 168.933L452.422 178.647L453.571 179.558L483.217 202.981Z" fill="#0C1618"/>
<path d="M421.254 233.941C434.961 233.941 446.073 222.829 446.073 209.122C446.073 195.415 434.961 184.303 421.254 184.303C407.547 184.303 396.435 195.415 396.435 209.122C396.435 222.829 407.547 233.941 421.254 233.941Z" fill="#F2F2F2"/>
<path d="M72.1353 297.289C62.4001 297.289 52.8836 294.402 44.7891 288.994C36.6946 283.585 30.3857 275.898 26.6603 266.903C22.9348 257.909 21.96 248.012 23.8592 238.464C25.7585 228.916 30.4464 220.146 37.3302 213.262C44.214 206.378 52.9845 201.69 62.5326 199.791C72.0807 197.892 81.9776 198.867 90.9717 202.592C99.9658 206.318 107.653 212.626 113.062 220.721C118.47 228.815 121.357 238.332 121.357 248.067C121.342 261.117 116.152 273.628 106.924 282.856C97.6964 292.084 85.1852 297.274 72.1353 297.289ZM72.1353 199.977C62.6239 199.977 53.3262 202.797 45.4178 208.081C37.5094 213.366 31.3455 220.876 27.7057 229.664C24.0658 238.451 23.1135 248.12 24.969 257.449C26.8246 266.778 31.4048 275.346 38.1303 282.072C44.8559 288.798 53.4248 293.378 62.7534 295.233C72.082 297.089 81.7513 296.137 90.5387 292.497C99.326 288.857 106.837 282.693 112.121 274.785C117.405 266.876 120.226 257.578 120.226 248.067C120.211 235.317 115.14 223.094 106.124 214.078C97.1088 205.062 84.8852 199.991 72.1353 199.977Z" fill="#3F3D56"/>
<path d="M428.569 228.265C422.415 228.265 416.399 226.44 411.282 223.021C406.164 219.602 402.176 214.742 399.821 209.056C397.466 203.37 396.849 197.113 398.05 191.077C399.251 185.041 402.214 179.496 406.566 175.145C410.918 170.793 416.463 167.829 422.499 166.628C428.535 165.428 434.791 166.044 440.477 168.399C446.163 170.754 451.023 174.743 454.442 179.86C457.862 184.977 459.687 190.993 459.687 197.148C459.677 205.398 456.396 213.307 450.562 219.141C444.729 224.974 436.819 228.256 428.569 228.265ZM428.569 167.162C422.639 167.162 416.841 168.921 411.91 172.216C406.979 175.51 403.136 180.194 400.866 185.673C398.597 191.152 398.003 197.181 399.16 202.998C400.317 208.814 403.173 214.157 407.366 218.351C411.56 222.544 416.903 225.4 422.719 226.557C428.536 227.714 434.565 227.121 440.044 224.851C445.524 222.581 450.207 218.738 453.502 213.807C456.796 208.876 458.555 203.078 458.555 197.148C458.546 189.198 455.384 181.576 449.763 175.955C444.141 170.333 436.519 167.171 428.569 167.162Z" fill="#3F3D56"/>
<path d="M535.499 244.107H120.791V245.238H535.499V244.107Z" fill="#3F3D56"/>
</svg>
