<svg width="94" height="48" viewBox="0 0 94 48" fill="none" xmlns="http://www.w3.org/2000/svg">
<g clip-path="url(#clip0_13_287)">
<path d="M42.1217 39.6983C40.3893 39.3382 39.2895 38.1119 38.1898 35.9124C37.2749 33.927 36.2628 31.708 35.2019 29.3431H29.2263C30.073 31.3966 30.9002 33.4014 31.6496 35.3285C32.7007 38.073 31.9416 39.416 29.6058 39.708L29.781 40.6423C32 40.4671 33.8686 40.4087 36.4964 40.4087C38.5985 40.4087 40.292 40.5255 41.9854 40.6423L42.0925 40.0778L42.1606 39.708C42.1606 39.708 42.1314 39.6983 42.1217 39.6983ZM14.9489 0.175171L14.8321 1.10948C16.3504 1.34305 17.4599 2.56933 17.4599 4.02919C17.4599 4.61313 17.3431 5.13867 17.1095 5.78101C15.9124 8.69099 14.6667 11.708 13.382 14.764H16.1168C17.2555 11.9903 18.3747 9.35279 19.3869 7.00729C20.4477 9.28466 21.6642 11.9221 22.9294 14.764H28.8078C26.5109 9.43065 24.3796 4.28223 22.7737 0.175171C20.5547 0.291959 16.9343 0.291959 14.9489 0.175171ZM8.35037 35.1533C8.94404 33.3431 9.63504 31.3771 10.3844 29.3431H7.10462C6.0438 31.7177 4.97324 34.0535 3.91241 36.3212C2.80292 38.7153 1.34307 39.5912 0 39.708L0.116788 40.6423C1.81022 40.5255 3.44526 40.4087 5.08029 40.4087C7.06569 40.4087 8.46715 40.4671 10.6861 40.6423L10.8029 39.708C8.40876 39.5912 7.35766 38.073 8.35037 35.1533Z" fill="url(#paint0_linear_13_287)"/>
<path d="M44.9051 3.79562C45.0219 7.78589 45.0803 11.2993 45.1095 14.764H50.6472C50.6764 11.0852 50.7445 7.35767 50.8613 3.09489C51.0852 1.78102 51.6594 1.28467 53.3139 1.09003C53.4307 1.07056 53.5475 1.06083 53.6643 1.0511L53.5475 0.15572V0.116791C53.4793 0.126523 53.4015 0.126523 53.3334 0.136255C53.2555 0.136255 53.1776 0.136255 53.1095 0.15572C51.2604 0.301706 49.7519 0.350367 48.2336 0.350367H47.4745C45.8394 0.350367 44.2044 0.291973 42.1606 0.116791L42.0438 1.0511C44.2628 1.28467 44.7883 1.86862 44.9051 3.79562ZM50.8613 37.6642C50.7835 34.6764 50.7251 31.9708 50.6862 29.3431H45.0706C45.0414 31.7567 44.983 34.2482 44.9051 36.9635C44.7883 38.871 44.2725 39.4647 42.1217 39.6983C42.1022 39.6983 42.073 39.708 42.0438 39.708L42.0925 40.0779L42.1606 40.6423C44.2044 40.4672 45.8394 40.4088 47.4745 40.4088H48.0584C49.6351 40.4088 51.2117 40.4574 53.1095 40.6131C53.1776 40.6131 53.2458 40.6131 53.3236 40.6229C53.3918 40.6326 53.4696 40.6326 53.5475 40.6423V40.6034L53.6643 39.708C53.5475 39.6983 53.4307 39.6886 53.3139 39.6691C51.6594 39.4745 51.0852 38.9781 50.8613 37.6642Z" fill="url(#paint1_linear_13_287)"/>
<path d="M55.854 3.79562C55.9708 7.78589 56.0292 11.2993 56.0584 14.764H61.5961C61.6253 11.0852 61.6934 7.35767 61.8102 3.09489C62.0438 1.69343 62.6861 1.22628 64.6131 1.0511V0.953774L64.5158 0.253044L64.4963 0.116791C62.4525 0.291973 60.8175 0.350367 59.1825 0.350367H58.4233C56.9051 0.350367 55.3966 0.301706 53.5474 0.15572C53.4793 0.145988 53.4112 0.145988 53.3333 0.136255C53.2652 0.126523 53.1873 0.126523 53.1095 0.116791V0.15572L52.9927 1.0511C53.0997 1.0511 53.2068 1.08029 53.3138 1.09003C55.2603 1.34307 55.7469 1.96594 55.854 3.79562ZM61.8102 37.6642C61.7323 34.6764 61.6739 31.9708 61.635 29.3431H56.0194C55.9902 31.7567 55.9318 34.2482 55.854 36.9635C55.7469 38.7932 55.2603 39.4161 53.3138 39.6691C53.2068 39.6788 53.0997 39.6983 52.9927 39.708L53.1095 40.6131V40.6423C53.1873 40.6326 53.2554 40.6326 53.3236 40.6229C53.4014 40.6131 53.4793 40.6131 53.5474 40.6034C55.3966 40.4574 56.9051 40.4088 58.4233 40.4088H59.0073C60.7007 40.4088 62.3941 40.4672 64.4963 40.6423L64.6131 39.708C62.6861 39.5329 62.0438 39.0657 61.8102 37.6642Z" fill="url(#paint2_linear_13_287)"/>
<path d="M75.9221 0C73.8881 0.175182 72.2531 0.233577 70.6083 0.233577H69.8589C68.2141 0.233577 66.5888 0.175182 64.545 0L64.5158 0.253041L64.4282 0.934307C64.4866 0.934307 64.545 0.934307 64.6034 0.953771C66.4526 1.13869 67.0657 1.6837 67.2312 3.15328C67.3479 7.40633 67.4355 11.1046 67.4842 14.764H73.0316C73.0608 11.0949 73.129 7.35766 73.2458 3.0365C73.4793 1.57664 74.1217 1.10949 76.0389 0.934307L75.9221 0ZM67.4842 29.3431C67.455 31.163 67.4161 33.1192 67.3479 35.6788C67.1728 43.2701 64.8857 46.365 59.056 47.0657L59.1144 48C65.7713 47.708 73.1192 44.7299 73.1192 35.7956C73.1192 33.4112 73.0998 31.3479 73.0706 29.3431H67.4842Z" fill="url(#paint3_linear_13_287)"/>
<path d="M11.5523 17.635C12.0389 17.674 12.4672 17.7032 12.9538 17.7032H13.0219C13.4599 17.7032 13.781 17.6934 14.1703 17.6448L14.1995 17.8589C13.7129 17.927 13.2555 18.3066 13.0122 18.91C12.0973 21.4307 11.1046 24.5839 10.3552 27.0852C10.219 27.0754 10.0243 27.056 9.84916 27.056C9.68371 27.056 9.47933 27.0657 9.33334 27.0852C8.66181 24.6813 7.80536 21.9854 6.98784 19.4745C6.17033 21.8783 5.24575 24.8078 4.53529 27.0852C4.39904 27.0754 4.19466 27.056 4.01947 27.056C3.84429 27.056 3.67884 27.0657 3.51339 27.0852C2.82239 24.4282 1.90755 21.4404 1.07057 18.7056C0.875923 18.1995 0.554755 17.927 0.145996 17.8589L0.175193 17.6448C0.554755 17.6837 0.934317 17.7032 1.4112 17.7032H1.4696C2.08274 17.7032 2.45256 17.6934 2.99758 17.6448L3.03651 17.8589C2.49149 17.9173 2.35524 18.2579 2.53042 18.8905C3.11437 21.0706 3.86376 23.747 4.40877 25.4307C5.25548 22.9878 6.15086 20.1849 6.86132 17.6642C7.02677 17.674 7.20196 17.674 7.34794 17.674C7.51339 17.674 7.68857 17.674 7.83456 17.6642C8.50609 20.0389 9.50853 23.3577 10.2093 25.4307C10.8321 23.5523 11.6983 20.6715 12.146 18.6667C12.1849 18.18 11.9513 17.8783 11.5231 17.8394L11.5523 17.6253V17.635Z" fill="url(#paint4_linear_13_287)"/>
<path d="M19.8054 26.0535C19.2895 26.6569 18.4818 27.2117 17.1874 27.2117C15.1436 27.2117 13.8589 25.8297 13.8589 23.8346C13.8589 21.8394 15.1436 20.4574 17.0803 20.4574C19.017 20.4574 19.9805 21.7616 19.9416 23.8248C18.9781 23.7956 17.927 23.7664 16.9051 23.7664C16.3893 23.7664 15.854 23.7762 15.2603 23.7956C15.2603 25.635 16.0876 26.7251 17.4404 26.7251C18.3358 26.7251 18.9392 26.4526 19.5426 25.781L19.8151 26.0535H19.8054ZM18.6959 23.3771C18.6667 22.219 18.3455 20.837 17.0706 20.837C16.0195 20.837 15.3577 21.8005 15.2603 23.3966C16.4088 23.3966 17.5475 23.3966 18.6959 23.3674V23.3771Z" fill="url(#paint5_linear_13_287)"/>
<path d="M21.3139 27.1046C21.5961 26.4234 21.6448 25.8005 21.6448 22.4428C21.6448 20.8857 21.6448 19.6886 21.635 18.9489C21.6253 18.472 21.4209 18.3455 20.8759 18.4331L20.9148 18.219C21.528 18.1411 22.4039 17.82 22.7835 17.5377L22.9586 17.6156C22.9197 19.0073 22.8905 20.3601 22.8808 21.8686C23.3674 20.9148 24.2141 20.4477 25.1484 20.4477C26.7737 20.4477 27.9416 21.8492 27.9416 23.8248C27.9416 25.8005 26.7737 27.202 25.1484 27.202C24.0584 27.202 23.1825 26.6472 22.7737 25.5961C22.4915 26.2093 22.0633 26.7445 21.5183 27.202L21.3236 27.0949L21.3139 27.1046ZM26.5304 23.8346C26.5304 22.073 25.8491 21.0024 24.7007 21.0024C23.5523 21.0024 22.871 22.0633 22.8613 23.8346C22.871 25.6058 23.5718 26.6667 24.7007 26.6667C25.8297 26.6667 26.5304 25.5864 26.5304 23.8346Z" fill="url(#paint6_linear_13_287)"/>
<path d="M35.8637 21.7616C36.5061 22.7153 37.4696 23.7275 38.6277 24.6618C38.6958 24.7202 38.764 24.7591 38.8224 24.8078C39.2019 24.1363 39.4063 23.3187 39.3771 22.4331C39.8832 22.4623 40.6326 22.4623 41.0803 22.4234L41.1192 22.6375C40.6131 22.6959 40.2044 23.1046 39.7567 24.1265C39.5815 24.4769 39.4063 24.8078 39.2117 25.1095C40.2044 25.8686 41.0413 26.3942 42.2092 27.0073L42.1411 27.2117C40.7688 26.9489 39.6301 26.5693 38.5596 25.9465C37.7713 26.7737 36.7591 27.2117 35.4939 27.2117C33.5474 27.2117 32.2628 26.326 32.2628 24.8078C32.2628 23.6788 33.0511 22.7445 34.5012 22.0243C34.034 21.2165 33.7615 20.4185 33.7615 19.708C33.7615 18.4039 34.7445 17.528 36.2336 17.528C37.6253 17.528 38.4817 18.1801 38.4817 19.2409C38.4817 20.3017 37.7907 20.8662 35.8637 21.7518V21.7616ZM34.7056 22.365C33.9659 22.91 33.6156 23.6204 33.6156 24.5353C33.6156 25.8297 34.5791 26.618 35.8832 26.618C36.7591 26.618 37.5474 26.2774 38.1606 25.6934C36.8759 24.9343 35.5328 23.6107 34.7153 22.365H34.7056ZM35.6496 21.4209C36.8175 20.7397 37.382 20.0973 37.382 19.2798C37.382 18.4234 36.9343 17.9465 36.1849 17.9465C35.4355 17.9465 34.9878 18.5012 34.9878 19.3674C34.9878 19.9903 35.2311 20.691 35.6593 21.4307L35.6496 21.4209Z" fill="url(#paint7_linear_13_287)"/>
<path d="M47.6399 17.7032H47.6789C48.6618 17.7032 49.6448 17.635 50.472 17.635C53.6253 17.635 55.5134 19.4161 55.5134 22.3747C55.5134 25.3333 53.6156 27.1144 50.472 27.1144C49.7324 27.1144 48.8954 27.056 48.0292 27.0462H47.6302C47.2506 27.0462 46.8711 27.056 46.3942 27.1046L46.365 26.8905C46.8808 26.8321 47.0073 26.6959 47.0365 26.2482C47.0755 24.8175 47.0949 23.6399 47.0949 22.3747C47.0949 21.1095 47.0852 19.9319 47.0365 18.5012C47.0073 18.0535 46.8905 17.9173 46.365 17.8589L46.3942 17.6448C46.8711 17.6837 47.2506 17.7032 47.6302 17.7032H47.6399ZM48.438 26.5401C49.0219 26.618 49.5669 26.6472 50.2677 26.6472C52.6034 26.6472 54.073 24.983 54.073 22.3844C54.073 19.7859 52.6034 18.1217 50.2677 18.1217C49.5767 18.1217 49.0317 18.1509 48.438 18.2287C48.3796 19.7859 48.3699 21.0414 48.3699 22.3844C48.3699 23.7275 48.3796 24.9927 48.438 26.5401Z" fill="url(#paint8_linear_13_287)"/>
<path d="M62.764 26.0535C62.2482 26.6569 61.4404 27.2117 60.146 27.2117C58.1022 27.2117 56.8175 25.8297 56.8175 23.8346C56.8175 21.8394 58.1022 20.4574 60.0389 20.4574C61.9757 20.4574 62.9392 21.7616 62.9002 23.8248C61.9367 23.7956 60.8856 23.7664 59.8637 23.7664C59.3479 23.7664 58.8126 23.7762 58.219 23.7956C58.219 25.635 59.0462 26.7251 60.399 26.7251C61.2944 26.7251 61.8978 26.4526 62.5012 25.781L62.7737 26.0535H62.764ZM61.6545 23.3771C61.6253 22.219 61.3041 20.837 60.0292 20.837C58.9781 20.837 58.3163 21.8005 58.219 23.3966C59.3674 23.3966 60.5061 23.3966 61.6545 23.3674V23.3771Z" fill="url(#paint9_linear_13_287)"/>
<path d="M64.7397 25.4599C64.9343 26.2871 65.5474 26.8224 66.2774 26.8224C67.0073 26.8224 67.562 26.3455 67.562 25.674C67.562 25.0998 67.2214 24.7494 66.2092 24.3017C64.7883 23.6886 64.2628 23.1728 64.2628 22.1995C64.2628 21.1679 65.1776 20.4574 66.4817 20.4574C67.2214 20.4574 67.9124 20.6618 68.3796 20.9927C68.2336 21.2749 68.0681 21.7032 67.9611 22.1509L67.747 22.1119C67.5815 21.3625 67.1241 20.8565 66.4234 20.8565C65.8005 20.8565 65.3236 21.2555 65.3236 21.8492C65.3236 22.4428 65.6934 22.7932 66.7251 23.2409C68.2141 23.8832 68.691 24.3893 68.691 25.2457C68.691 26.4136 67.6983 27.2214 66.219 27.2214C65.3333 27.2214 64.5937 27.017 64.1071 26.6667C64.2433 26.3552 64.4477 25.7421 64.545 25.4112L64.7494 25.4696L64.7397 25.4599Z" fill="url(#paint10_linear_13_287)"/>
<path d="M69.9367 26.8905C70.4428 26.8321 70.5888 26.7153 70.6083 26.2774C70.6375 25.4988 70.6375 24.6715 70.6375 23.8248C70.6375 23.1144 70.6375 22.5207 70.6277 21.8492C70.618 21.382 70.4136 21.2749 69.8784 21.3625L69.9076 21.1484C70.5207 21.0706 71.4063 20.7494 71.7859 20.4672L71.9611 20.545C71.893 21.6642 71.8638 22.7153 71.8638 23.8346C71.8638 24.6813 71.8735 25.4988 71.893 26.2871C71.9027 26.7251 72.0584 26.8419 72.5645 26.9002L72.5353 27.1144C72.0487 27.0754 71.6496 27.056 71.2506 27.056C70.8516 27.056 70.472 27.0657 69.9854 27.1144L69.9465 26.9002L69.9367 26.8905ZM71.1922 17.5377C71.6594 17.5377 72 17.8686 72 18.3552C72 18.8419 71.6691 19.1728 71.1922 19.1728C70.7153 19.1728 70.3844 18.8419 70.3844 18.3552C70.3844 17.8686 70.7153 17.5377 71.1922 17.5377Z" fill="url(#paint11_linear_13_287)"/>
<path d="M76.5742 20.4574C76.9732 20.4574 77.3528 20.5353 77.7518 20.5353C78.2385 20.5353 79.0073 20.3406 79.455 19.7469L79.9708 20.399C79.5718 20.7396 78.9489 20.8467 78.1995 20.8175H78.1898C78.8808 21.2165 79.3187 21.8394 79.3187 22.6472C79.3187 23.9513 78.1703 24.8564 76.5742 24.8564C76.3601 24.8564 76.1265 24.8467 75.9222 24.798C75.4161 24.8564 75.163 25.0608 75.163 25.4112C75.163 25.7907 75.5134 26.0243 77.0122 26.1508C79.1241 26.3455 79.9708 26.8905 79.9708 28.1265C79.9708 29.5669 78.3066 30.4817 76.6618 30.4817C74.7932 30.4817 73.6642 29.7907 73.6642 28.6131C73.6642 27.8053 74.1801 27.2506 75.2214 26.9489C74.4136 26.7348 74.1314 26.4039 74.1314 25.8978C74.1314 25.3236 74.618 24.8759 75.3771 24.6423C74.4526 24.3017 73.8686 23.5815 73.8686 22.6375C73.8686 21.3333 75.017 20.4379 76.5937 20.4379L76.5742 20.4574ZM74.6959 28.5158C74.6959 29.4696 75.5231 30.073 76.7105 30.073C78.1801 30.073 78.8224 29.2165 78.8224 28.545C78.8224 27.6886 78.2385 27.3187 76.7591 27.1922C76.292 27.163 75.9027 27.1143 75.5718 27.0462C74.9295 27.4647 74.6861 27.9611 74.6861 28.5158H74.6959ZM77.9659 22.6472C77.9659 21.5182 77.4501 20.837 76.5742 20.837C75.6983 20.837 75.1825 21.5182 75.1825 22.6472C75.1825 23.7761 75.7178 24.4769 76.5742 24.4769C77.4307 24.4769 77.9659 23.7859 77.9659 22.6472Z" fill="url(#paint12_linear_13_287)"/>
<path d="M85.3431 26.8905C85.8492 26.8321 85.9951 26.7153 86.0146 26.2677C86.0438 25.2847 86.0535 24.4282 86.0535 23.2312C86.0535 21.8978 85.5475 21.1776 84.584 21.1776C83.6886 21.1776 82.91 21.9368 82.8224 22.8224C82.8127 23.163 82.8127 23.5037 82.8127 23.8346C82.8127 24.6813 82.8127 25.5085 82.8419 26.2871C82.8516 26.7251 83.0073 26.8419 83.5134 26.9003L83.4842 27.1144C82.9976 27.0754 82.5986 27.056 82.1995 27.056C81.8005 27.056 81.4112 27.0657 80.9149 27.1144L80.8857 26.9003C81.3917 26.8419 81.5377 26.7251 81.5572 26.2871C81.5864 25.5085 81.5864 24.6813 81.5864 23.8346C81.5864 23.1241 81.5864 22.5304 81.5767 21.8589C81.5669 21.3917 81.3626 21.2847 80.8273 21.3723L80.8565 21.1582C81.4696 21.0803 82.3261 20.7591 82.6959 20.4769L82.8613 20.5548C82.8516 20.9538 82.8224 21.4501 82.8029 21.9465C83.2506 21.0316 84.1947 20.4769 85.1776 20.4769C86.511 20.4769 87.2896 21.3333 87.2896 23.017C87.2896 24.0973 87.2604 25.1874 87.2993 26.3455C87.309 26.7543 87.4745 26.8613 87.9708 26.9197L87.9416 27.1338C87.455 27.0949 87.056 27.0754 86.657 27.0754C86.2579 27.0754 85.8686 27.0852 85.3723 27.1338L85.3431 26.9197V26.8905Z" fill="url(#paint13_linear_13_287)"/>
<path d="M89.6058 25.4599C89.8005 26.2871 90.4136 26.8224 91.1435 26.8224C91.8735 26.8224 92.4282 26.3455 92.4282 25.674C92.4282 25.0998 92.0876 24.7494 91.0754 24.3017C89.6545 23.6886 89.1289 23.1728 89.1289 22.1995C89.1289 21.1679 90.0438 20.4574 91.3479 20.4574C92.0876 20.4574 92.7786 20.6618 93.2457 20.9927C93.0997 21.2749 92.9343 21.7032 92.8272 22.1509L92.6131 22.1119C92.4477 21.3625 91.9902 20.8565 91.2895 20.8565C90.6666 20.8565 90.1898 21.2555 90.1898 21.8492C90.1898 22.4428 90.5596 22.7932 91.5912 23.2409C93.0803 23.8832 93.5571 24.3893 93.5571 25.2457C93.5571 26.4136 92.5644 27.2214 91.0851 27.2214C90.1995 27.2214 89.4598 27.017 88.9732 26.6667C89.1095 26.3552 89.3138 25.7421 89.4112 25.4112L89.6155 25.4696L89.6058 25.4599Z" fill="url(#paint14_linear_13_287)"/>
</g>
<defs>
<linearGradient id="paint0_linear_13_287" x1="1.00243" y1="-7.32848" x2="32.8078" y2="67.7177" gradientUnits="userSpaceOnUse">
<stop offset="0.3" stop-color="#D1AC02"/>
<stop offset="0.5" stop-color="#FAF4D3"/>
<stop offset="0.7" stop-color="#D1AC02"/>
</linearGradient>
<linearGradient id="paint1_linear_13_287" x1="30.764" y1="-19.9416" x2="62.5694" y2="55.1046" gradientUnits="userSpaceOnUse">
<stop offset="0.3" stop-color="#D1AC02"/>
<stop offset="0.5" stop-color="#FAF4D3"/>
<stop offset="0.7" stop-color="#D1AC02"/>
</linearGradient>
<linearGradient id="paint2_linear_13_287" x1="40.0486" y1="-23.8735" x2="71.854" y2="51.1727" gradientUnits="userSpaceOnUse">
<stop offset="0.3" stop-color="#D1AC02"/>
<stop offset="0.5" stop-color="#FAF4D3"/>
<stop offset="0.7" stop-color="#D1AC02"/>
</linearGradient>
<linearGradient id="paint3_linear_13_287" x1="46.1314" y1="-26.4526" x2="77.9368" y2="48.5937" gradientUnits="userSpaceOnUse">
<stop offset="0.3" stop-color="#D1AC02"/>
<stop offset="0.5" stop-color="#FAF4D3"/>
<stop offset="0.7" stop-color="#D1AC02"/>
</linearGradient>
<linearGradient id="paint4_linear_13_287" x1="-3.02675" y1="-5.61557" x2="28.7786" y2="69.4307" gradientUnits="userSpaceOnUse">
<stop offset="0.3" stop-color="#D1AC02"/>
<stop offset="0.5" stop-color="#FAF4D3"/>
<stop offset="0.7" stop-color="#D1AC02"/>
</linearGradient>
<linearGradient id="paint5_linear_13_287" x1="3.33821" y1="-8.31142" x2="35.1435" y2="66.7348" gradientUnits="userSpaceOnUse">
<stop offset="0.3" stop-color="#D1AC02"/>
<stop offset="0.5" stop-color="#FAF4D3"/>
<stop offset="0.7" stop-color="#D1AC02"/>
</linearGradient>
<linearGradient id="paint6_linear_13_287" x1="9.40147" y1="-10.8808" x2="41.2068" y2="64.1557" gradientUnits="userSpaceOnUse">
<stop offset="0.3" stop-color="#D1AC02"/>
<stop offset="0.5" stop-color="#FAF4D3"/>
<stop offset="0.7" stop-color="#D1AC02"/>
</linearGradient>
<linearGradient id="paint7_linear_13_287" x1="20.0389" y1="-15.3869" x2="51.8443" y2="59.6496" gradientUnits="userSpaceOnUse">
<stop offset="0.3" stop-color="#D1AC02"/>
<stop offset="0.5" stop-color="#FAF4D3"/>
<stop offset="0.7" stop-color="#D1AC02"/>
</linearGradient>
<linearGradient id="paint8_linear_13_287" x1="32.039" y1="-20.4769" x2="63.8443" y2="54.5596" gradientUnits="userSpaceOnUse">
<stop offset="0.3" stop-color="#D1AC02"/>
<stop offset="0.5" stop-color="#FAF4D3"/>
<stop offset="0.7" stop-color="#D1AC02"/>
</linearGradient>
<linearGradient id="paint9_linear_13_287" x1="39.7567" y1="-23.7469" x2="71.5621" y2="51.2993" gradientUnits="userSpaceOnUse">
<stop offset="0.3" stop-color="#D1AC02"/>
<stop offset="0.5" stop-color="#FAF4D3"/>
<stop offset="0.7" stop-color="#D1AC02"/>
</linearGradient>
<linearGradient id="paint10_linear_13_287" x1="45.1095" y1="-26.0146" x2="76.9149" y2="49.0219" gradientUnits="userSpaceOnUse">
<stop offset="0.3" stop-color="#D1AC02"/>
<stop offset="0.5" stop-color="#FAF4D3"/>
<stop offset="0.7" stop-color="#D1AC02"/>
</linearGradient>
<linearGradient id="paint11_linear_13_287" x1="49.567" y1="-27.9124" x2="81.3724" y2="47.1338" gradientUnits="userSpaceOnUse">
<stop offset="0.3" stop-color="#D1AC02"/>
<stop offset="0.5" stop-color="#FAF4D3"/>
<stop offset="0.7" stop-color="#D1AC02"/>
</linearGradient>
<linearGradient id="paint12_linear_13_287" x1="53.7713" y1="-29.6934" x2="85.5767" y2="45.3528" gradientUnits="userSpaceOnUse">
<stop offset="0.3" stop-color="#D1AC02"/>
<stop offset="0.5" stop-color="#FAF4D3"/>
<stop offset="0.7" stop-color="#D1AC02"/>
</linearGradient>
<linearGradient id="paint13_linear_13_287" x1="59.9514" y1="-32.3114" x2="91.7567" y2="42.7348" gradientUnits="userSpaceOnUse">
<stop offset="0.3" stop-color="#D1AC02"/>
<stop offset="0.5" stop-color="#FAF4D3"/>
<stop offset="0.7" stop-color="#D1AC02"/>
</linearGradient>
<linearGradient id="paint14_linear_13_287" x1="66.1898" y1="-34.9489" x2="97.9951" y2="40.0876" gradientUnits="userSpaceOnUse">
<stop offset="0.3" stop-color="#D1AC02"/>
<stop offset="0.5" stop-color="#FAF4D3"/>
<stop offset="0.7" stop-color="#D1AC02"/>
</linearGradient>
<clipPath id="clip0_13_287">
<rect width="93.5377" height="48" fill="white"/>
</clipPath>
</defs>
</svg>
