<svg width="96" height="96" viewBox="0 0 96 96" fill="none" xmlns="http://www.w3.org/2000/svg">
<path d="M14.1105 85.5922L6.57 1.01392H89.43L81.882 85.5794L47.9498 94.9867L14.1105 85.5922Z" fill="#1572B6"/>
<path d="M48.0008 87.7965L75.42 80.1945L81.8708 7.92896H48.0008V87.7965Z" fill="#33A9DC"/>
<path d="M48.0008 38.5717H61.7273L62.6753 27.9494H48.0008V17.5762H74.0123L73.7633 20.3594L71.2133 48.9449H48.0008V38.5717Z" fill="white"/>
<path d="M48.0622 65.5118L48.0165 65.5253L36.4642 62.4061L35.7255 54.1328H25.314L26.7667 70.4206L48.015 76.3178L48.0622 76.3043V65.5118Z" fill="#EBEBEB"/>
<path d="M60.8452 48.5063L59.5957 62.3978L48.0262 65.5208V76.3133L69.2917 70.4198L69.4477 68.6671L71.2522 48.5063H60.8452Z" fill="white"/>
<path d="M48.036 17.5762V27.9494H22.98L22.7722 25.6184L22.2997 20.3594L22.0515 17.5762H48.036ZM48.0007 38.5732V48.9464H36.594L36.3862 46.6154L35.913 41.3564L35.6655 38.5732H48.0007Z" fill="#EBEBEB"/>
</svg>
