<svg width="80" height="80" viewBox="0 0 80 80" fill="none" xmlns="http://www.w3.org/2000/svg">
<g clip-path="url(#clip0_27_382)">
<path d="M78.75 13.75V76.25C78.748 76.9124 78.484 77.5472 78.0156 78.0156C77.5472 78.484 76.9124 78.748 76.25 78.75H3.75C3.08757 78.748 2.45283 78.484 1.98442 78.0156C1.51601 77.5472 1.25198 76.9124 1.25 76.25V13.75H78.75Z" fill="#DFE1EA"/>
<path d="M76.25 1.25C76.9124 1.25198 77.5472 1.51601 78.0156 1.98442C78.484 2.45283 78.748 3.08757 78.75 3.75V13.75H1.25V3.75C1.25198 3.08757 1.51601 2.45283 1.98442 1.98442C2.45283 1.51601 3.08757 1.25198 3.75 1.25H76.25Z" fill="#ADB2C7"/>
<path d="M49.5 26.25C40 26.25 40 23.75 30.5 23.75C21 23.75 21 26.25 11.5 26.25C8.02903 26.3035 4.57091 25.8159 1.25 24.805V34.805C4.57091 35.8159 8.02903 36.3035 11.5 36.25C21 36.25 21 33.75 30.5 33.75C40 33.75 40 36.25 49.5 36.25C59 36.25 59 33.75 68.5 33.75C71.971 33.6978 75.429 34.1858 78.75 35.1962V25.1962C75.429 24.1858 71.971 23.6978 68.5 23.75C59 23.75 59 26.25 49.5 26.25Z" fill="#CDD2E1"/>
<path d="M1.25 13.75V24.805C4.57091 25.8159 8.02903 26.3035 11.5 26.25C21 26.25 21 23.75 30.5 23.75C40 23.75 40 26.25 49.5 26.25C59 26.25 59 23.75 68.5 23.75C71.971 23.6978 75.429 24.1858 78.75 25.1962V13.75H1.25Z" fill="#F6FAFD"/>
<path d="M76.3175 20H48.6825C48.5272 19.9998 48.3733 20.0303 48.2298 20.0897C48.0862 20.149 47.9558 20.2361 47.846 20.346C47.7361 20.4558 47.649 20.5862 47.5897 20.7298C47.5303 20.8733 47.4998 21.0272 47.5 21.1825V46.3175C47.5002 46.4728 47.4697 46.6267 47.4103 46.7702C47.351 46.9138 47.2639 47.0442 47.154 47.154C47.0442 47.2639 46.9138 47.351 46.7702 47.4103C46.6267 47.4697 46.4728 47.5002 46.3175 47.5H42.4325C42.2772 47.4998 42.1233 47.5303 41.9798 47.5897C41.8362 47.649 41.7058 47.7361 41.596 47.846C41.4861 47.9558 41.399 48.0862 41.3397 48.2298C41.2803 48.3733 41.2498 48.5272 41.25 48.6825V77.5675C41.2498 77.7228 41.2803 77.8767 41.3397 78.0202C41.399 78.1638 41.4861 78.2942 41.596 78.404C41.7058 78.5139 41.8362 78.601 41.9798 78.6603C42.1233 78.7197 42.2772 78.7502 42.4325 78.75H70.0675C70.2228 78.7502 70.3767 78.7197 70.5202 78.6603C70.6638 78.601 70.7942 78.5139 70.904 78.404C71.0139 78.2942 71.101 78.1638 71.1603 78.0202C71.2197 77.8767 71.2502 77.7228 71.25 77.5675V52.4325C71.2498 52.2772 71.2803 52.1233 71.3397 51.9798C71.399 51.8362 71.4861 51.7058 71.596 51.596C71.7058 51.4861 71.8362 51.399 71.9798 51.3397C72.1233 51.2803 72.2772 51.2498 72.4325 51.25H76.3175C76.4728 51.2502 76.6267 51.2197 76.7702 51.1603C76.9138 51.101 77.0442 51.0139 77.154 50.904C77.2639 50.7942 77.351 50.6638 77.4103 50.5202C77.4697 50.3767 77.5002 50.2228 77.5 50.0675V21.1825C77.5002 21.0272 77.4697 20.8733 77.4103 20.7298C77.351 20.5862 77.2639 20.4558 77.154 20.346C77.0442 20.2361 76.9138 20.149 76.7702 20.0897C76.6267 20.0303 76.4728 19.9998 76.3175 20Z" fill="#ADB2C7"/>
<path d="M25 55C33.9746 55 41.25 47.7246 41.25 38.75C41.25 29.7754 33.9746 22.5 25 22.5C16.0254 22.5 8.75 29.7754 8.75 38.75C8.75 47.7246 16.0254 55 25 55Z" fill="#ADB2C7"/>
<path d="M47.5 28.75H72.5V46.25H47.5V28.75Z" fill="white"/>
<path d="M47.5 18.75H72.5V28.75H47.5V18.75Z" fill="#FFE208"/>
<path d="M51.25 32.5H68.75V42.5H51.25V32.5Z" fill="#DFE1EA"/>
<path d="M41.25 56.25H66.25V73.75H41.25V56.25Z" fill="white"/>
<path d="M41.25 46.25H66.25V56.25H41.25V46.25Z" fill="#25726E"/>
<path d="M45 60H62.5V70H45V60Z" fill="#DFE1EA"/>
<path d="M22.5 51.25C31.4746 51.25 38.75 43.9746 38.75 35C38.75 26.0254 31.4746 18.75 22.5 18.75C13.5254 18.75 6.25 26.0254 6.25 35C6.25 43.9746 13.5254 51.25 22.5 51.25Z" fill="white"/>
<path d="M6.25 6.25H8.75V8.75H6.25V6.25ZM17.5 6.25H73.75V8.75H17.5V6.25ZM51.25 22.5H53.75V25H51.25V22.5ZM56.25 22.5H58.75V25H56.25V22.5ZM50 50H52.5V52.5H50V50ZM45 50H47.5V52.5H45V50Z" fill="white"/>
<path d="M76.25 0H3.75C2.75544 0 1.80161 0.395088 1.09835 1.09835C0.395088 1.80161 0 2.75544 0 3.75L0 76.25C0 77.2446 0.395088 78.1984 1.09835 78.9016C1.80161 79.6049 2.75544 80 3.75 80H76.25C77.2446 80 78.1984 79.6049 78.9016 78.9016C79.6049 78.1984 80 77.2446 80 76.25V3.75C80 2.75544 79.6049 1.80161 78.9016 1.09835C78.1984 0.395088 77.2446 0 76.25 0ZM3.75 2.5H76.25C76.5815 2.5 76.8995 2.6317 77.1339 2.86612C77.3683 3.10054 77.5 3.41848 77.5 3.75V12.5H2.5V3.75C2.5 3.41848 2.6317 3.10054 2.86612 2.86612C3.10054 2.6317 3.41848 2.5 3.75 2.5ZM76.25 77.5H3.75C3.41848 77.5 3.10054 77.3683 2.86612 77.1339C2.6317 76.8995 2.5 76.5815 2.5 76.25V15H77.5V76.25C77.5 76.5815 77.3683 76.8995 77.1339 77.1339C76.8995 77.3683 76.5815 77.5 76.25 77.5Z" fill="#0C1814"/>
<path d="M22.5 52.5C25.9612 52.5 29.3446 51.4737 32.2225 49.5507C35.1003 47.6278 37.3434 44.8947 38.6679 41.697C39.9924 38.4993 40.339 34.9806 39.6637 31.5859C38.9885 28.1913 37.3218 25.0731 34.8744 22.6256C32.4269 20.1782 29.3087 18.5115 25.9141 17.8363C22.5194 17.161 19.0007 17.5076 15.803 18.8321C12.6053 20.1566 9.87221 22.3997 7.94928 25.2775C6.02636 28.1554 5 31.5388 5 35C5.00496 39.6398 6.8503 44.0881 10.1311 47.3689C13.4119 50.6497 17.8602 52.495 22.5 52.5ZM22.5 20C25.4667 20 28.3668 20.8797 30.8336 22.528C33.3003 24.1762 35.2229 26.5189 36.3582 29.2598C37.4935 32.0006 37.7906 35.0166 37.2118 37.9264C36.633 40.8361 35.2044 43.5088 33.1066 45.6066C31.0088 47.7044 28.3361 49.133 25.4264 49.7118C22.5166 50.2906 19.5006 49.9935 16.7597 48.8582C14.0189 47.7229 11.6762 45.8003 10.028 43.3336C8.37973 40.8668 7.5 37.9667 7.5 35C7.5043 31.0231 9.08604 27.2103 11.8981 24.3982C14.7103 21.586 18.5231 20.0043 22.5 20Z" fill="#0C1814"/>
<path d="M18.3837 40.3662L13.0175 35L18.3837 29.6338L16.6163 27.8662L10.3663 34.1162C10.1319 34.3507 10.0003 34.6685 10.0003 35C10.0003 35.3315 10.1319 35.6493 10.3663 35.8838L16.6163 42.1338L18.3837 40.3662ZM28.3838 42.1338L34.6338 35.8838C34.8681 35.6493 34.9997 35.3315 34.9997 35C34.9997 34.6685 34.8681 34.3507 34.6338 34.1162L28.3838 27.8662L26.6162 29.6338L31.9825 35L26.6162 40.3662L28.3838 42.1338ZM72.5 17.5H47.5C47.1685 17.5 46.8505 17.6317 46.6161 17.8661C46.3817 18.1005 46.25 18.4185 46.25 18.75V45H41.25C40.9185 45 40.6005 45.1317 40.3661 45.3661C40.1317 45.6005 40 45.9185 40 46.25V73.75C40 74.0815 40.1317 74.3995 40.3661 74.6339C40.6005 74.8683 40.9185 75 41.25 75H66.25C66.5815 75 66.8995 74.8683 67.1339 74.6339C67.3683 74.3995 67.5 74.0815 67.5 73.75V47.5H72.5C72.8315 47.5 73.1495 47.3683 73.3839 47.1339C73.6183 46.8995 73.75 46.5815 73.75 46.25V18.75C73.75 18.4185 73.6183 18.1005 73.3839 17.8661C73.1495 17.6317 72.8315 17.5 72.5 17.5ZM71.25 20V27.5H48.75V20H71.25ZM42.5 72.5V57.5H65V72.5H42.5ZM65 55H42.5V47.5H65V55ZM66.25 45H48.75V30H71.25V45H66.25ZM8.75 70H35V72.5H8.75V70ZM8.75 63.75H35V66.25H8.75V63.75ZM18.75 57.5H35V60H18.75V57.5ZM8.75 57.5H13.75V60H8.75V57.5ZM11.25 6.25H13.75V8.75H11.25V6.25Z" fill="#0C1814"/>
<path d="M20.0157 42.2944L22.5183 27.2943L24.9843 27.7057L22.4816 42.7058L20.0157 42.2944Z" fill="#0C1814"/>
</g>
<defs>
<clipPath id="clip0_27_382">
<rect width="80" height="80" fill="white"/>
</clipPath>
</defs>
</svg>
