<svg width="96" height="96" viewBox="0 0 96 96" fill="none" xmlns="http://www.w3.org/2000/svg">
<path d="M14.2778 85.4071L6.774 1.24585H89.226L81.714 85.3944L47.9497 94.7544L14.2778 85.4071Z" fill="#E44D26"/>
<path d="M48 87.6L75.2835 80.0355L81.7027 8.12695H48V87.6Z" fill="#F16529"/>
<path d="M48 39.3412H34.341L33.3975 28.7707H48V18.4492H22.1167L22.3642 21.2182L24.9007 49.6635H48V39.3412ZM48 66.1485L47.9542 66.1612L36.459 63.0562L35.7247 54.825H25.362L26.808 71.0317L47.9527 76.9012L48 76.8885V66.1485Z" fill="#EBEBEB"/>
<path d="M47.964 39.3412V49.6635H60.6742L59.4765 63.0502L47.964 66.1575V76.8967L69.1252 71.0317L69.2805 69.288L71.706 42.1132L71.9572 39.3412H69.1762H47.964ZM47.964 18.4492V28.7707H72.897L73.104 26.4517L73.575 21.2182L73.8217 18.4492H47.964Z" fill="white"/>
</svg>
