<svg width="96" height="96" viewBox="0 0 96 96" fill="none" xmlns="http://www.w3.org/2000/svg">
<path d="M0 48C0 61.9448 21.4905 73.2503 48 73.2503C74.5095 73.2503 96 61.9448 96 48C96 34.0553 74.5088 22.7498 48 22.7498C21.4912 22.7498 0 34.0553 0 48Z" fill="url(#paint0_radial_40_543)"/>
<path d="M48 71.3753C73.4738 71.3753 94.125 60.909 94.125 48C94.125 35.0895 73.4738 24.6248 48 24.6248C22.5262 24.6248 1.875 35.0895 1.875 48C1.875 60.909 22.5262 71.3753 48 71.3753Z" fill="#777BB3"/>
<path d="M26.079 50.8979C28.1738 50.8979 29.7368 50.5117 30.726 49.7504C31.7055 48.9959 32.3813 47.6902 32.736 45.8692C33.066 44.1667 32.94 42.9787 32.361 42.3367C31.77 41.6812 30.4913 41.3489 28.5608 41.3489H25.2128L23.358 50.8979H26.079ZM15.1298 62.6602C15.053 62.6601 14.9771 62.643 14.9077 62.6101C14.8383 62.5772 14.777 62.5294 14.7282 62.47C14.6795 62.4107 14.6445 62.3413 14.6257 62.2668C14.607 62.1923 14.6049 62.1146 14.6198 62.0392L19.5375 36.7357C19.5608 36.6174 19.6243 36.5108 19.7173 36.4341C19.8103 36.3574 19.927 36.3153 20.0475 36.3149H30.648C33.9795 36.3149 36.459 37.2194 38.0183 39.0037C39.5843 40.7962 40.0688 43.3042 39.456 46.4549C39.2063 47.7382 38.7773 48.9299 38.181 49.9979C37.5605 51.0966 36.7686 52.0891 35.835 52.9379C34.6868 54.0119 33.387 54.7919 31.9748 55.2502C30.5858 55.7032 28.8008 55.9327 26.6723 55.9327H22.3793L21.1538 62.2387C21.1306 62.3574 21.067 62.4643 20.9736 62.5412C20.8803 62.6181 20.7632 62.6602 20.6423 62.6602H15.1298Z" fill="#0C1618"/>
<path d="M25.6425 41.8695H28.5608C30.891 41.8695 31.7003 42.381 31.9755 42.6862C32.4308 43.1917 32.5178 44.259 32.2238 45.7702C31.8945 47.463 31.284 48.6637 30.4088 49.3372C29.5133 50.0272 28.0553 50.3767 26.079 50.3767H23.9895L25.6425 41.8695ZM30.648 35.7945H20.0483C19.8065 35.7945 19.5723 35.8785 19.3857 36.0321C19.1991 36.1858 19.0717 36.3995 19.0253 36.6367L14.1075 61.941C14.0785 62.0917 14.0831 62.247 14.121 62.3957C14.1589 62.5445 14.2292 62.683 14.3269 62.8014C14.4245 62.9199 14.5471 63.0153 14.6859 63.0808C14.8247 63.1464 14.9763 63.1805 15.1298 63.1807H20.6423C20.884 63.1805 21.1181 63.0963 21.3045 62.9425C21.491 62.7887 21.6183 62.5749 21.6645 62.3377L22.8083 56.4532H26.6715C28.8555 56.4532 30.6945 56.2147 32.1368 55.7452C33.6195 55.2637 34.9838 54.447 36.1913 53.3175C37.1637 52.4321 37.9888 51.3973 38.6355 50.2522C39.2588 49.137 39.7073 47.892 39.9668 46.554C40.6118 43.2367 40.0875 40.581 38.4098 38.661C36.7478 36.7582 34.1363 35.7937 30.648 35.7937V35.7945ZM22.7258 51.4177H26.079C28.3015 51.4182 29.9565 50.9995 31.044 50.1615C32.1315 49.3245 32.866 47.9267 33.2475 45.9682C33.6115 44.0872 33.4453 42.7602 32.7488 41.9872C32.0513 41.2142 30.6553 40.8277 28.5608 40.8277H24.7838L22.7258 51.4177ZM30.6488 36.834C33.8378 36.834 36.1635 37.671 37.626 39.345C39.0885 41.019 39.5285 43.3555 38.946 46.3545C38.705 47.5905 38.2988 48.72 37.7273 49.743C37.1548 50.767 36.407 51.7037 35.484 52.5532C34.384 53.5832 33.161 54.317 31.815 54.7545C30.4695 55.1925 28.7553 55.4112 26.6723 55.4107H21.9503L20.643 62.1382H15.1305L20.049 36.834H30.6488Z" fill="white"/>
<path d="M52.0942 55.9327C52.0174 55.9328 51.9414 55.9158 51.8719 55.8831C51.8024 55.8503 51.7409 55.8026 51.692 55.7433C51.6431 55.684 51.608 55.6146 51.5891 55.5401C51.5702 55.4656 51.568 55.3878 51.5827 55.3124L53.7577 44.1164C53.9655 43.0514 53.9145 42.2879 53.6152 41.9639C53.4315 41.7667 52.881 41.4359 51.2527 41.4359H47.3107L44.5762 55.5119C44.5528 55.6304 44.4888 55.7371 44.3954 55.8137C44.302 55.8903 44.1848 55.9321 44.064 55.9319H38.5965C38.5197 55.9319 38.4438 55.915 38.3743 55.8823C38.3048 55.8497 38.2434 55.802 38.1944 55.7428C38.1455 55.6836 38.1102 55.6143 38.0912 55.5399C38.0721 55.4655 38.0698 55.3878 38.0842 55.3124L43.0027 30.0082C43.026 29.8896 43.0898 29.7828 43.1831 29.7061C43.2764 29.6293 43.3934 29.5874 43.5142 29.5874H48.9817C49.0585 29.5874 49.1344 29.6043 49.2039 29.637C49.2734 29.6697 49.3348 29.7173 49.3838 29.7765C49.4327 29.8357 49.468 29.905 49.487 29.9794C49.5061 30.0538 49.5085 30.1315 49.494 30.2069L48.3075 36.3149H52.5472C55.7775 36.3149 57.9675 36.8834 59.2432 38.0557C60.543 39.2504 60.9495 41.1607 60.4492 43.7354L58.161 55.5119C58.1375 55.6303 58.0737 55.7369 57.9804 55.8135C57.8872 55.8901 57.7702 55.9319 57.6495 55.9319L52.0942 55.9327Z" fill="#0C1618"/>
<path d="M48.9825 29.0662H43.5142C43.2724 29.0662 43.0381 29.1503 42.8515 29.3041C42.6649 29.4579 42.5375 29.6718 42.4912 29.9092L37.5735 55.2127C37.5443 55.3634 37.5488 55.5188 37.5867 55.6676C37.6245 55.8165 37.6948 55.9551 37.7925 56.0736C37.8901 56.1922 38.0128 56.2876 38.1517 56.3532C38.2905 56.4189 38.4422 56.453 38.5957 56.4532H44.064C44.3058 56.4531 44.5401 56.369 44.7267 56.2152C44.9133 56.0614 45.0407 55.8475 45.087 55.6102L47.7397 41.9564H51.2512C52.8772 41.9564 53.2192 42.3037 53.232 42.3194C53.331 42.4244 53.4607 42.9157 53.2462 44.0174L51.0712 55.2127C51.042 55.3635 51.0466 55.5189 51.0845 55.6678C51.1224 55.8167 51.1927 55.9554 51.2905 56.0739C51.3882 56.1925 51.511 56.2879 51.6499 56.3535C51.7889 56.419 51.9406 56.4531 52.0942 56.4532H57.6502C57.8919 56.4529 58.126 56.3687 58.3125 56.215C58.499 56.0612 58.6262 55.8474 58.6725 55.6102L60.9607 43.8352C61.497 41.0707 61.038 38.9977 59.5957 37.6724C58.2187 36.4079 55.9132 35.7937 52.5472 35.7937H48.9397L50.0055 30.3074C50.0348 30.1565 50.0304 30.001 49.9925 29.852C49.9547 29.703 49.8844 29.5643 49.7866 29.4456C49.6888 29.327 49.566 29.2315 49.427 29.1659C49.288 29.1003 49.1362 29.0662 48.9825 29.0662ZM48.9825 30.1087L47.6752 36.8347H52.5472C55.6127 36.8347 57.727 37.3697 58.89 38.4397C60.054 39.5087 60.4035 41.2412 59.9385 43.6372L57.6495 55.4114H52.0942L54.27 44.2154C54.5175 42.9419 54.4262 42.0734 53.9962 41.6099C53.5662 41.1469 52.6517 40.9154 51.2527 40.9154H46.881L44.064 55.4107H38.595L43.5135 30.1064H48.9825V30.1087Z" fill="white"/>
<path d="M69.102 50.8979C71.1967 50.8979 72.7605 50.5117 73.7505 49.7504C74.7285 48.9959 75.405 47.6902 75.7597 45.8692C76.0897 44.1667 75.9645 42.9787 75.3847 42.3367C74.7937 41.6812 73.515 41.3489 71.5845 41.3489H68.2372L66.381 50.8979H69.102ZM58.155 62.6602C58.0781 62.6603 58.002 62.6434 57.9324 62.6106C57.8628 62.5778 57.8014 62.53 57.7524 62.4706C57.7035 62.4112 57.6684 62.3417 57.6495 62.2671C57.6307 62.1925 57.6286 62.1147 57.6435 62.0392L62.5612 36.7357C62.5845 36.6172 62.6483 36.5104 62.7416 36.4336C62.8349 36.3569 62.9519 36.3149 63.0727 36.3149H73.6725C77.004 36.3149 79.4835 37.2194 81.042 39.0037C82.6087 40.7962 83.0925 43.3042 82.4797 46.4549C82.2453 47.696 81.8152 48.8919 81.2055 49.9979C80.585 51.0966 79.793 52.0891 78.8595 52.9379C77.712 54.0119 76.4107 54.7919 74.9992 55.2502C73.6102 55.7032 71.8252 55.9327 69.696 55.9327H65.4037L64.179 62.2387C64.1558 62.3575 64.092 62.4645 63.9986 62.5414C63.9051 62.6184 63.7878 62.6603 63.6667 62.6602H58.155Z" fill="#0C1618"/>
<path d="M68.6663 41.8695H71.5845C73.9148 41.8695 74.724 42.381 74.9985 42.6862C75.456 43.1917 75.5415 44.259 75.2483 45.7702C74.9183 47.463 74.3078 48.6637 73.4325 49.3372C72.5363 50.0272 71.0783 50.3767 69.1028 50.3767H67.0133L68.6663 41.8695ZM73.6718 35.7945H63.072C62.8304 35.7946 62.5964 35.8787 62.4099 36.0324C62.2235 36.186 62.0962 36.3996 62.0498 36.6367L57.1313 61.941C57.1022 62.0917 57.1068 62.2471 57.1448 62.3959C57.1827 62.5447 57.2531 62.6833 57.3508 62.8017C57.4486 62.9202 57.5713 63.0155 57.7102 63.0811C57.849 63.1466 58.0007 63.1806 58.1543 63.1807H63.6668C63.9085 63.1805 64.1426 63.0963 64.329 62.9425C64.5155 62.7887 64.6428 62.5749 64.689 62.3377L65.8328 56.4532H69.6953C71.8785 56.4532 73.7183 56.2147 75.1598 55.7452C76.6433 55.2637 78.0075 54.447 79.2158 53.3167C80.1879 52.4315 81.0127 51.397 81.6593 50.2522C82.2833 49.137 82.7303 47.892 82.9905 46.554C83.6355 43.2367 83.112 40.581 81.4335 38.661C79.7715 36.7582 77.1608 35.7937 73.671 35.7937L73.6718 35.7945ZM65.7495 51.4177H69.102C71.3245 51.4182 72.98 50.9995 74.0685 50.1615C75.156 49.3245 75.89 47.9267 76.2705 45.9682C76.636 44.0872 76.4698 42.7602 75.7718 41.9872C75.0738 41.2142 73.678 40.8277 71.5845 40.8277H67.8083L65.7495 51.4177ZM73.6718 36.834C76.8608 36.834 79.1865 37.671 80.649 39.345C82.1115 41.019 82.5513 43.3555 81.9683 46.3545C81.7283 47.5905 81.3223 48.72 80.7503 49.743C80.1783 50.767 79.4303 51.7037 78.5063 52.5532C77.4063 53.5832 76.1833 54.317 74.8373 54.7545C73.4923 55.1925 71.7783 55.4112 69.6953 55.4107H64.974L63.6653 62.1382H58.1528L63.0713 36.834H73.6718Z" fill="white"/>
<defs>
<radialGradient id="paint0_radial_40_543" cx="0" cy="0" r="1" gradientUnits="userSpaceOnUse" gradientTransform="translate(28.8195 31.6268) scale(63.031 63.031)">
<stop stop-color="#AEB2D5"/>
<stop offset="0.3" stop-color="#AEB2D5"/>
<stop offset="0.75" stop-color="#484C89"/>
<stop offset="1" stop-color="#484C89"/>
</radialGradient>
</defs>
</svg>
