<svg width="96" height="96" viewBox="0 0 96 96" fill="none" xmlns="http://www.w3.org/2000/svg">
<path d="M48 56.55C52.722 56.55 56.55 52.722 56.55 48C56.55 43.2779 52.722 39.45 48 39.45C43.2779 39.45 39.45 43.2779 39.45 48C39.45 52.722 43.2779 56.55 48 56.55Z" fill="#61DAFB"/>
<path d="M80.475 33.8999C78.825 33.2999 77.1 32.6999 75.3 32.1749C75.75 30.3749 76.125 28.5749 76.425 26.8499C78 16.9499 76.275 9.97495 71.475 7.27495C70.05 6.44995 68.475 6.07495 66.675 6.07495C61.425 6.07495 54.75 9.97495 48 16.4999C41.25 9.97495 34.575 6.07495 29.325 6.07495C27.525 6.07495 25.95 6.44995 24.525 7.27495C19.725 10.0499 18 17.0249 19.575 26.8499C19.875 28.5749 20.25 30.3749 20.7 32.1749C18.9 32.6999 17.175 33.2249 15.525 33.8999C6.14999 37.4999 1.04999 42.4499 1.04999 47.9999C1.04999 53.5499 6.22499 58.4999 15.525 62.0999C17.175 62.6999 18.9 63.2999 20.7 63.8249C20.25 65.6249 19.875 67.4249 19.575 69.1499C18 79.0499 19.725 86.0249 24.525 88.7249C25.95 89.5499 27.525 89.9249 29.325 89.9249C34.65 89.9249 41.325 86.0249 48 79.4999C54.75 86.0249 61.425 89.9249 66.675 89.9249C68.475 89.9249 70.05 89.5499 71.475 88.7249C76.275 85.9499 78 78.9749 76.425 69.1499C76.125 67.4249 75.75 65.6249 75.3 63.8249C77.1 63.2999 78.825 62.7749 80.475 62.0999C89.85 58.4999 94.95 53.5499 94.95 47.9999C94.95 42.4499 89.85 37.4999 80.475 33.8999ZM69.375 11.0249C72.45 12.8249 73.5 18.3749 72.225 26.2499C72 27.8249 71.625 29.4749 71.175 31.1999C67.275 30.2999 63.15 29.6999 58.8 29.3249C56.25 25.7249 53.625 22.4999 51 19.5749C56.55 14.0999 62.175 10.35 66.75 10.35C67.725 10.35 68.625 10.5749 69.375 11.0249ZM60.975 55.4999C59.625 57.8999 58.05 60.2999 56.4 62.6999C53.625 62.9249 50.85 62.9999 48 62.9999C45.075 62.9999 42.3 62.9249 39.6 62.6999C37.95 60.2999 36.45 57.8999 35.1 55.4999C33.675 53.0249 32.325 50.4749 31.125 47.9999C32.325 45.5249 33.675 42.9749 35.1 40.4999C36.45 38.0999 38.025 35.6999 39.675 33.2999C42.45 33.0749 45.225 32.9999 48.075 32.9999C51 32.9999 53.775 33.0749 56.475 33.2999C58.125 35.6999 59.625 38.0999 60.975 40.4999C62.4 42.9749 63.75 45.5249 64.95 47.9999C63.675 50.4749 62.4 52.9499 60.975 55.4999ZM67.2 53.0249C68.325 55.6499 69.225 58.1999 70.05 60.7499C67.5 61.3499 64.8 61.7999 61.95 62.1749C62.85 60.7499 63.825 59.2499 64.65 57.6749C65.55 56.0999 66.375 54.5249 67.2 53.0249ZM48 73.3499C46.2 71.3999 44.475 69.2999 42.825 67.1249C44.55 67.1999 46.275 67.2749 48 67.2749C49.725 67.2749 51.45 67.1999 53.175 67.1249C51.525 69.2999 49.8 71.3999 48 73.3499ZM34.05 62.0999C31.2 61.7249 28.5 61.2749 25.95 60.6749C26.775 58.1999 27.675 55.5749 28.8 52.9499C29.625 54.4499 30.45 56.0249 31.35 57.5249C32.25 59.1749 33.15 60.5999 34.05 62.0999ZM28.8 42.9749C27.675 40.3499 26.775 37.7999 25.95 35.2499C28.5 34.6499 31.2 34.1999 34.05 33.8249C33.15 35.2499 32.175 36.7499 31.35 38.3249C30.45 39.8999 29.625 41.4749 28.8 42.9749ZM48 22.6499C49.8 24.5999 51.525 26.6999 53.175 28.8749C51.45 28.7999 49.725 28.7249 48 28.7249C46.275 28.7249 44.55 28.7999 42.825 28.8749C44.475 26.6999 46.2 24.5999 48 22.6499ZM64.65 38.3999L61.95 33.8999C64.8 34.2749 67.5 34.7249 70.05 35.3249C69.225 37.7999 68.325 40.4249 67.2 43.0499C66.375 41.4749 65.55 39.8999 64.65 38.3999ZM23.775 26.2499C22.5 18.3749 23.55 12.8249 26.625 11.0249C27.375 10.5749 28.275 10.35 29.25 10.35C33.75 10.35 39.375 14.0249 45 19.5749C42.375 22.4249 39.75 25.7249 37.2 29.3249C32.85 29.6999 28.725 30.3749 24.825 31.1999C24.375 29.4749 24.075 27.8249 23.775 26.2499ZM5.24999 47.9999C5.24999 44.4749 9.52499 40.7249 17.025 37.9499C18.525 37.3499 20.175 36.8249 21.825 36.3749C23.025 40.1249 24.525 44.0999 26.325 48.0749C24.525 52.0499 22.95 55.9499 21.825 59.6999C11.475 56.6999 5.24999 52.1999 5.24999 47.9999ZM26.625 84.9749C23.55 83.1749 22.5 77.6249 23.775 69.7499C24 68.1749 24.375 66.5249 24.825 64.7999C28.725 65.6999 32.85 66.2999 37.2 66.6749C39.75 70.2749 42.375 73.4999 45 76.4249C39.45 81.8999 33.825 85.6499 29.25 85.6499C28.275 85.6499 27.375 85.4249 26.625 84.9749ZM72.225 69.7499C73.5 77.6249 72.45 83.1749 69.375 84.9749C68.625 85.4249 67.725 85.6499 66.75 85.6499C62.25 85.6499 56.625 81.9749 51 76.4249C53.625 73.5749 56.25 70.2749 58.8 66.6749C63.15 66.2999 67.275 65.6249 71.175 64.7999C71.625 66.5249 71.925 68.1749 72.225 69.7499ZM78.975 58.0499C77.475 58.6499 75.825 59.1749 74.175 59.6249C72.975 55.8749 71.475 51.8999 69.675 47.9249C71.475 43.9499 73.05 40.0499 74.175 36.2999C84.525 39.2999 90.75 43.7999 90.75 47.9999C90.75 51.5249 86.4 55.2749 78.975 58.0499Z" fill="#61DAFB"/>
</svg>
