<svg width="96" height="96" viewBox="0 0 96 96" fill="none" xmlns="http://www.w3.org/2000/svg">
<path fill-rule="evenodd" clip-rule="evenodd" d="M0.914246 42.117C0.914246 42.6443 1.0695 42.9923 1.1565 43.3305C1.7235 45.5303 2.94225 47.418 4.38825 49.14C6.44775 51.594 8.97 53.5695 11.5537 55.4273C13.7947 57.0383 16.0815 58.6133 18.3315 60.2123C18.7177 60.4868 19.083 60.8025 19.5023 61.1393C19.1415 61.3343 18.8415 61.506 18.5295 61.6643C15.5602 63.1703 12.7035 64.8585 10.0702 66.9038C8.48325 68.1368 6.94875 69.447 5.865 71.1593C4.12125 73.9133 3.504 76.8473 4.80375 79.98C5.18325 80.895 5.76225 81.6855 6.579 82.2698C6.84375 82.4588 7.14075 82.6463 7.4505 82.7198C8.244 82.9065 9.0525 83.0288 9.85575 83.1765L12.1305 83.175C14.646 82.9508 16.9357 82.089 19.005 80.661C22.239 78.429 24.4177 75.4365 25.3545 71.5958C26.0355 68.8043 26.0633 66.0098 25.2607 63.231C25.1836 62.9737 25.0951 62.7199 24.9952 62.4705C24.8977 62.2208 24.783 61.9778 24.648 61.6665L29.805 58.701L29.8823 58.767C29.7885 59.0738 29.6888 59.3798 29.604 59.6895C28.9913 61.9275 28.584 64.2045 28.7303 66.5273C28.8863 69.0023 29.577 71.319 31.026 73.3868C32.1975 75.0593 34.989 75.1215 36.234 73.443C36.6758 72.8468 37.104 72.2235 37.4258 71.5583C38.2665 69.822 39.045 68.055 39.8483 66.3L39.9885 65.979C39.9308 66.81 39.8633 67.5398 39.8325 68.2703C39.7845 69.411 39.8513 70.545 40.2413 71.6303C40.575 72.5588 41.1428 73.2525 42.2063 73.3748C42.9338 73.458 43.5135 73.125 44.0483 72.7028C44.8765 72.0478 45.5631 71.2316 46.0665 70.3035C47.4923 67.6853 48.9563 65.0828 50.2485 62.3985C51.6465 59.4953 52.869 56.5073 54.1673 53.5545L54.3818 53.031C54.6885 54.2363 54.9023 55.4168 55.296 56.5343C55.7535 57.831 56.3198 59.097 56.9363 60.3278C57.228 60.909 57.1943 61.2863 56.79 61.7738C55.098 63.8138 53.4353 65.8785 51.771 67.941C51.4028 68.3963 51.036 68.8598 50.7293 69.357C50.5431 69.671 50.4208 70.0186 50.3693 70.38C50.3176 70.7127 50.3968 71.0524 50.5902 71.328C50.7836 71.6036 51.0761 71.7936 51.4065 71.8583C52.0734 72.0015 52.7571 72.0502 53.4375 72.003C55.7603 71.832 57.8693 71.0168 59.7338 69.6353C62.1495 67.8458 62.925 65.4038 62.34 62.5095C62.1818 61.7243 61.902 60.9608 61.6298 60.204C61.5075 59.8628 61.4993 59.6235 61.722 59.3055C63.6533 56.5478 65.3033 53.622 66.8378 50.6288C66.8985 50.511 66.9608 50.3933 67.0673 50.2673C67.5645 52.8548 68.313 55.3485 69.654 57.6113C68.97 58.2705 68.2928 58.8683 67.68 59.5268C66.3308 60.9773 65.1608 62.5523 64.5503 64.473C64.2878 65.301 64.086 66.1425 64.203 67.0268C64.3845 68.4 65.5095 69.2925 66.8603 68.9798C69.7508 68.3108 72.246 66.9488 74.0693 64.536C75.2963 62.9115 75.408 61.0995 74.8943 59.2013C74.7533 58.6853 74.586 58.1775 74.406 57.5858C75.1193 57.3645 75.8145 57.099 76.5338 56.9348C80.268 56.0828 83.9618 56.2313 87.5603 57.5798C89.661 58.3673 91.3583 59.685 92.3648 61.758C93.594 64.2923 92.9145 66.6968 90.5258 68.2988C90.303 68.448 90.048 68.5658 89.8635 68.7525C89.8045 68.821 89.7603 68.9011 89.7338 68.9876C89.7074 69.0741 89.6992 69.1652 89.7098 69.255C89.7255 69.3473 89.9693 69.4628 90.1095 69.4613C90.8948 69.4553 91.5315 69.0435 92.1428 68.6205C93.6743 67.5608 94.7918 66.135 95.0325 64.2578L95.0798 64.1168L95.022 62.8943C94.9988 62.8238 95.0393 62.754 95.034 62.7008C94.7085 59.967 93.2483 57.8468 91.1243 56.1848C88.6643 54.261 85.7595 53.469 82.6875 53.3438C80.196 53.2365 77.7077 53.6195 75.3638 54.471C74.691 54.7148 74.0243 55.0035 73.3478 55.2758C73.257 55.1115 73.1595 54.954 73.0793 54.7913C72.3848 53.3693 71.5433 52.0103 71.3573 50.3798C71.2253 49.2218 71.0633 48.0653 71.3385 46.92C71.6033 45.8183 71.9483 44.7353 72.273 43.6485C72.4403 43.089 72.3225 42.7755 71.7885 42.5235C71.6019 42.4321 71.4035 42.367 71.199 42.33C69.8865 42.1395 68.592 42.2483 67.3208 42.618C66.8708 42.7493 66.5438 43.0013 66.444 43.4993C66.387 43.785 66.2708 44.0588 66.1898 44.3408C65.8575 45.513 65.622 46.7078 65.085 47.8245C63.7395 50.6258 62.2035 53.3213 60.6315 55.9973C60.4613 56.286 60.282 56.5695 60.0675 56.9198C59.5155 55.7648 58.9268 54.7283 58.7483 53.5133C58.5465 52.1393 58.3875 50.7675 58.7295 49.404C58.9838 48.387 59.316 47.3888 59.622 46.3853C59.7668 45.9083 59.7 45.6578 59.268 45.4065C59.0498 45.2798 58.803 45.1673 58.557 45.1305C57.2112 44.9254 55.8361 45.0379 54.5415 45.459C54.1343 45.591 53.9205 45.8543 53.796 46.2743C53.43 47.5133 53.118 48.7823 52.6043 49.9605C50.5238 54.7305 48.3833 59.4758 46.245 64.2203C45.7988 65.211 45.276 66.1673 44.7728 67.1318C44.6453 67.3763 44.4593 67.5915 44.3003 67.821C44.1728 67.6703 44.1233 67.5668 44.124 67.4633C44.1278 66.8535 44.055 66.2258 44.1713 65.6363C44.5282 63.8534 44.9228 62.0782 45.3548 60.312C45.7073 58.8525 46.1175 57.4065 46.5083 55.9568C46.6395 55.4715 46.6418 55.0178 46.293 54.6098C45.7073 53.9265 44.4833 53.7765 43.7573 54.303L43.4363 54.4845L43.4985 53.967C43.6515 52.8578 43.6823 51.7523 43.3778 50.6595C42.9983 49.2975 42.0263 48.5138 40.6133 48.5573C39.9548 48.5775 39.2633 48.69 38.6535 48.93C36.0893 49.935 34.1175 51.7148 32.439 53.856C32.2833 54.0547 32.0905 54.2213 31.8713 54.3465C29.7015 55.5495 27.525 56.7375 25.3492 57.93L22.9275 59.2568C22.278 58.6373 21.6878 57.9945 21.018 57.4493C18.9728 55.7813 16.8945 54.1545 14.835 52.5053C13.0095 51.0435 11.241 49.521 9.888 47.5853C8.8815 46.1453 8.23275 44.5695 8.1705 42.789C8.09175 40.5203 8.73525 38.4473 9.89025 36.5175C11.3677 34.0485 13.383 32.067 15.5985 30.2723C17.9423 28.3748 20.4773 26.7638 23.1045 25.293C26.7803 23.2358 30.561 21.4148 34.6148 20.2125C38.7713 18.9795 42.9885 18.2738 47.3385 18.7658C49.0485 18.9593 50.709 19.3508 52.2338 20.187C53.4015 20.8268 54.3593 21.6645 54.8048 22.974C55.2443 24.2625 55.2308 25.5682 54.9263 26.877C54.3075 29.5275 52.8563 31.7123 51.03 33.6645C48.0345 36.8648 44.3805 39.0435 40.2668 40.4828C37.9014 41.3112 35.4405 41.8361 32.943 42.045C30.8963 42.2168 28.8923 42.0353 26.9542 41.3235C25.671 40.8518 24.5535 40.1303 23.655 39.0833C23.4945 38.8958 23.289 38.6925 22.9898 38.868C22.6965 39.0405 22.6448 39.3195 22.743 39.6023C22.9073 40.0718 23.0588 40.5608 23.3145 40.9808C23.9573 42.0345 24.8948 42.7988 25.9268 43.4543C27.909 44.715 30.1245 45.1388 32.4218 45.237C35.9078 45.3878 39.309 44.8673 42.6623 43.932C47.4495 42.597 51.612 40.239 54.9503 36.519C57.7298 33.4215 59.715 29.9258 60.1403 25.7048C60.348 23.6445 60.1268 21.6263 59.1623 19.7468C58.116 17.7105 56.4525 16.1963 54.4635 15.153C51.567 13.6343 48.441 12.75 45.2145 12.75H41.982C38.0745 12.75 34.2968 13.8698 30.6248 15.2055C27.8453 16.2173 25.1198 17.4112 22.4738 18.7327C16.7115 21.612 11.3452 25.0838 6.9375 29.8575C4.7415 32.2358 2.88225 34.86 1.81275 37.95C1.4905 38.8727 1.21244 39.8103 0.979496 40.7595M21.8588 67.7693C21.609 71.1135 20.0933 73.8248 17.616 76.0208C16.2225 77.2553 14.6242 78.1343 12.7627 78.4433C12.0877 78.555 11.397 78.582 10.7422 78.3023C9.8085 77.9033 9.59925 77.0745 9.58125 76.1918C9.5535 74.7848 10.0462 73.5128 10.722 72.3023C11.604 70.7243 12.897 69.5213 14.2777 68.3978C16.4527 66.627 18.8123 65.1285 21.2288 63.714L21.411 63.639C21.7845 65.019 21.9623 66.3818 21.8588 67.7693ZM40.7273 53.235C40.551 54.303 40.3305 55.3718 40.0185 56.4068C38.94 59.9895 37.5548 63.4613 36.057 66.8865C35.7803 67.5203 35.3775 68.0985 35.0273 68.6993C34.9676 68.7916 34.8963 68.8758 34.815 68.9498C34.3815 69.378 33.9705 69.3555 33.7515 68.7953C33.4965 68.1443 33.3398 67.4475 33.2048 66.7583C33.114 66.2955 33.1358 65.8095 33.1073 65.3355C33.1365 61.965 34.1648 58.902 35.9093 56.0505C36.6285 54.8745 37.4115 53.754 38.6078 53.01C38.98 52.7789 39.3826 52.6007 39.804 52.4805C40.4415 52.3013 40.833 52.596 40.7273 53.235ZM53.6003 69.636L58.227 64.2338C58.4198 66.24 55.0095 70.245 53.6003 69.636ZM68.3775 66.0008C68.0505 66.1883 67.6943 66.3233 67.359 66.4965C67.0523 66.6555 66.951 66.495 66.942 66.231C66.9377 66.0483 66.9612 65.8659 67.0118 65.6903C67.6365 63.4868 68.7863 61.6058 70.497 60.0758L70.617 60.0143C71.4308 62.2905 70.4903 64.7903 68.3775 66.0008Z" fill="#CB6699"/>
</svg>
