<svg width="96" height="96" viewBox="0 0 96 96" fill="none" xmlns="http://www.w3.org/2000/svg">
<g clip-path="url(#clip0_40_512)">
<path d="M48.003 19.2014C35.2027 19.2014 27.2055 25.5989 24.003 38.3992C28.8015 32.0009 34.4032 29.6017 40.8015 31.2014C44.4547 32.1119 47.0655 34.7609 49.9567 37.6964C54.6622 42.4717 60.1087 47.9999 72.003 47.9999C84.8025 47.9999 92.8005 41.6017 96.003 28.7984C91.203 35.1999 85.6032 37.6004 79.2037 35.9999C75.5512 35.0887 72.9435 32.4404 70.0485 29.5049C65.346 24.7297 59.901 19.2014 48.003 19.2014ZM24.003 47.9999C11.2035 47.9999 3.20549 54.3982 0.00299072 67.2014C4.80249 60.7999 10.402 58.3994 16.8015 59.9999C20.4547 60.9112 23.0655 63.5594 25.9567 66.4949C30.6622 71.2702 36.1087 76.7984 48.003 76.7984C60.8025 76.7984 68.8005 70.4009 72.003 57.6007C67.203 63.9992 61.6032 66.3984 55.2037 64.7984C51.5512 63.8879 48.9435 61.2389 46.0485 58.3034C41.346 53.5282 35.901 47.9999 24.003 47.9999Z" fill="#38BDF8"/>
</g>
<defs>
<clipPath id="clip0_40_512">
<rect width="96" height="96" fill="white"/>
</clipPath>
</defs>
</svg>
