<svg width="80" height="80" viewBox="0 0 80 80" fill="none" xmlns="http://www.w3.org/2000/svg">
<g clip-path="url(#clip0_30_402)">
<path d="M67.875 29.3125C66.4375 29.1875 63.6875 29.9375 62.4375 36.0625C62.4375 39.75 63.3125 42 64.6875 42.8125C67.25 43.5625 70.25 40.125 70.25 36.4375C70.375 33.875 70.5 30.6875 67.875 29.3125Z" fill="#0C1814"/>
<path d="M72.6875 16.125H7.3125C3.25 16.125 0 19.375 0 23.375V48.375C0 52.375 3.25 55.6875 7.3125 55.6875H72.75C76.75 55.6875 80.0625 52.4375 80.0625 48.375V23.375C80 19.375 76.75 16.125 72.6875 16.125ZM27.5 50C27.5 50 23.1875 44.3125 22.1875 40C21.1875 35.75 20.9375 37.6875 20.9375 37.6875C20.9375 37.6875 17.5 45.4375 13.9375 50.375C10.375 55.3125 8.625 47.9375 8.625 47.9375C7.375 46.4375 3.8125 24.625 3.8125 24.625C5.8125 19.0625 9.25 23.625 9.25 23.625L12.6875 41.375C12.6875 41.375 18 30.5 19.8125 27.6875C21.5625 24.875 24.625 25.6875 24.875 28.5625C25.125 31.5 28.0625 39.4375 28.0625 39.4375C28.3125 31.0625 31.75 23.0625 32.25 21.8125C32.75 20.5625 38.3125 19 37.3125 24.375C34.875 30.3125 32.5 42.875 33.125 49.75C31.4375 54.9375 27.5 50 27.5 50ZM49.9375 47.1875C48.3125 47.9375 42.25 52.125 37.9375 42.75C35.25 33.3125 41.25 26.375 41.25 26.375C41.25 26.375 49.0625 19.6875 54.375 28.5625C58.6875 38.3125 51.5625 46.4375 49.9375 47.1875ZM69.8125 47.1875C68.1875 47.9375 62.125 52.125 57.8125 42.75C55.125 33.3125 61.125 26.375 61.125 26.375C61.125 26.375 69 19.625 74.3125 28.5C78.625 38.3125 71.4375 46.4375 69.8125 47.1875Z" fill="#0C1814"/>
<path d="M47.9375 29.3125C46.5 29.1875 43.75 29.9375 42.5 36.0625C42.5 39.75 43.375 42 44.75 42.8125C47.3125 43.5625 50.3125 40.125 50.3125 36.4375C50.5 33.875 50.625 30.6875 47.9375 29.3125ZM38.3125 55.6875L52.25 63.875L49.3125 55.6875L41.3125 53.4375L38.3125 55.6875Z" fill="#0C1814"/>
</g>
<defs>
<clipPath id="clip0_30_402">
<rect width="80" height="80" fill="white"/>
</clipPath>
</defs>
</svg>
