<svg width="80" height="80" viewBox="0 0 80 80" fill="none" xmlns="http://www.w3.org/2000/svg">
<path fill-rule="evenodd" clip-rule="evenodd" d="M40.0603 80C62.063 79.9666 79.8745 62.0685 79.8745 39.9907C79.8745 18.2717 62.1452 0.384523 40.9642 0.00641726C18.7195 -0.390305 0.131298 17.6599 0.125521 39.5484C0.119101 62.0672 17.8509 80.0321 40.0603 80ZM39.9955 1.94317C61.12 1.93611 77.9512 19.0992 77.9448 40.6397C77.9377 60.9759 60.6604 77.9881 40.0109 77.9926C18.9737 77.9971 2.05585 60.9406 2.05649 39.7275C2.05778 19.0613 19.2388 1.95023 39.9955 1.94317ZM24.0521 22.0143C24.3975 23.1653 23.4307 23.5658 22.403 23.6461C21.3213 23.7295 20.2403 23.8111 18.9846 23.9067C23.129 36.2539 27.2112 48.4181 31.3902 60.8655C31.6881 60.3782 31.8107 60.2409 31.8646 60.0804C34.1589 53.2231 36.4661 46.3703 38.702 39.4938C38.9061 38.8666 38.8047 38.0359 38.5813 37.3914C37.3982 33.9763 35.9808 30.6356 34.9434 27.1794C34.234 24.8131 33.2929 23.2821 30.496 23.5562C30.0197 23.6031 29.4381 22.5779 28.9046 22.0483C29.5498 21.6631 30.1904 20.9544 30.8414 20.9448C36.5368 20.8573 42.2333 20.859 47.9287 20.9499C48.5822 20.9608 49.2228 21.6881 49.868 22.0829C49.3031 22.5991 48.8158 23.3733 48.1553 23.5729C47.0954 23.8926 45.92 23.8322 44.6515 23.9452L57.0726 60.8956C58.9541 54.6457 60.7047 48.9067 62.4071 43.1529C63.926 38.0167 63.0208 33.2201 60.2746 28.6963C59.449 27.336 58.4348 26.0161 57.9668 24.5326C57.4353 22.8449 56.9936 20.9236 57.2754 19.2308C57.7537 16.3619 59.9549 14.9374 62.9335 14.6646C46.6332 -0.463486 21.0183 4.95197 11.5798 21.389C15.2132 21.2215 18.6823 21.0013 22.1539 20.9538C22.81 20.9454 23.8981 21.5001 24.0521 22.0143ZM30.5467 72.0674C30.471 72.2889 30.4665 72.5354 30.4068 72.9032C37.4316 74.8509 44.3209 74.7103 51.3721 72.3345L40.6002 42.8306C37.153 52.8521 33.8469 62.4581 30.5467 72.0674ZM25.1184 70.7335L8.88937 26.2145C1.56797 40.5158 7.1375 62.3355 25.1184 70.7335ZM74.1811 42.1271C74.6959 35.3648 72.3631 26.002 70.3486 24.7143C70.124 27.2018 70.2806 29.9692 69.5668 32.4908C67.8868 38.432 65.8326 44.2699 63.8541 50.1238C61.7036 56.4868 59.4683 62.8208 57.2696 69.1678C67.5998 63.0442 73.2766 54.0063 74.1811 42.1271Z" fill="#0C1814"/>
</svg>
