<svg width="96" height="96" viewBox="0 0 96 96" fill="none" xmlns="http://www.w3.org/2000/svg">
<path fill-rule="evenodd" clip-rule="evenodd" d="M32.4427 90.9248C32.502 91.6883 32.4645 92.478 32.667 93.2025C32.7532 93.5085 33.342 93.6743 33.7027 93.9038L34.1715 94.2045C33.9952 94.3073 33.8197 94.4963 33.6412 94.4985C32.2419 94.5226 30.8422 94.5231 29.4427 94.5C29.2567 94.497 29.0745 94.3223 28.8915 94.227C29.04 94.1198 29.1825 93.9338 29.3392 93.921C30.2775 93.8423 30.5632 93.2723 30.5587 92.4293C30.5505 90.8798 30.5542 89.3288 30.561 87.7778C30.5647 86.9138 30.3195 86.283 29.3017 86.244C29.1607 86.238 29.0272 86.022 28.8907 85.9043C29.0272 85.821 29.1652 85.6635 29.3002 85.6658C31.0927 85.6875 32.8927 85.6478 34.6755 85.7985C36.0802 85.9178 37.0057 86.8898 37.101 88.0103C37.2045 89.2395 36.5737 90.0833 35.1472 90.6248L34.6005 90.8288C35.5192 91.6973 36.333 92.5463 37.2375 93.2828C37.6387 93.6105 38.2072 93.8055 38.7292 93.8955C39.774 94.074 40.341 93.6248 40.3695 92.589C40.4152 90.9173 40.3935 89.2433 40.3777 87.5708C40.3702 86.8043 40.041 86.298 39.186 86.256C39.0247 86.2485 38.871 86.0663 38.7142 85.965C38.8935 85.86 39.0727 85.665 39.2505 85.6658C41.0745 85.6808 42.9067 85.6245 44.7187 85.7865C47.811 86.061 49.5337 88.6343 48.6292 91.4775C48.078 93.2115 46.758 94.1918 45.06 94.3073C42.0915 94.5098 39.1065 94.4685 36.1282 94.4895C35.8912 94.491 35.5987 94.2338 35.4202 94.0223C34.7347 93.2085 34.0882 92.3625 33.4192 91.5353C33.2167 91.2848 32.991 91.0545 32.7757 90.8145L32.4427 90.9248ZM42.282 86.523C42.282 88.6118 42.2565 90.636 42.309 92.658C42.3172 92.9685 42.6165 93.4373 42.894 93.5483C43.9867 93.984 45.753 93.2723 46.2465 92.1668C46.9072 90.687 46.9875 89.1293 46.0942 87.7253C45.213 86.34 43.7452 86.478 42.282 86.523ZM32.5162 89.9438C33.4627 89.9678 34.506 90.1785 34.9102 89.139C35.1367 88.5563 35.0857 87.6525 34.773 87.1215C34.2982 86.3145 33.3435 86.4555 32.5155 86.5575L32.5162 89.9438Z" fill="#337BA2"/>
<path fill-rule="evenodd" clip-rule="evenodd" d="M72.5775 89.5124C73.203 89.3774 73.8233 89.3969 74.226 89.1097C74.5643 88.8697 74.6483 88.2727 74.907 87.6952C75.0563 87.9629 75.1965 88.0994 75.1995 88.2382C75.2183 89.2732 75.222 90.3089 75.1995 91.3439C75.1958 91.5059 75.03 91.6642 74.9393 91.8247C74.8373 91.7392 74.685 91.6747 74.64 91.5652C74.0903 90.2369 74.0933 90.2362 72.5078 90.3779C72.7395 91.4144 71.9355 92.7397 73.1753 93.4214C73.8075 93.7687 74.8275 93.6997 75.567 93.4724C76.1978 93.2804 76.677 92.5942 77.226 92.1239V94.4459C76.9223 94.4729 76.692 94.5104 76.4603 94.5104C73.3545 94.5149 70.2488 94.5014 67.1438 94.5247C66.6083 94.5292 66.246 94.3942 65.919 93.9449C65.2763 93.0584 64.5698 92.2184 63.8753 91.3709C63.7013 91.1587 63.4748 90.9899 63.1095 90.6494C63.1095 91.5149 63.078 92.1352 63.1185 92.7509C63.1605 93.3944 63.4702 93.8212 64.182 93.9014C64.3912 93.9254 64.5787 94.1452 64.776 94.2764C64.5727 94.3552 64.371 94.4999 64.167 94.5037C62.797 94.5227 61.427 94.5229 60.057 94.5044C59.847 94.5014 59.6385 94.3747 59.4075 94.2982L59.5245 94.0709C61.2075 93.3914 61.212 93.3914 61.2105 91.4399C61.2094 90.2224 61.1996 89.0048 61.1812 87.7874C61.1685 86.9467 60.9405 86.2799 59.9145 86.2439C59.7668 86.2387 59.6265 86.0287 59.4818 85.9132C59.6513 85.8284 59.8215 85.6694 59.9903 85.6709C61.7235 85.6874 63.4665 85.6304 65.1878 85.7909C67.0718 85.9664 68.2365 87.5377 67.5368 88.9837C67.1543 89.7734 66.2708 90.3209 65.493 91.0972C66.231 91.7722 67.0808 92.7427 68.1113 93.4484C69.567 94.4459 70.5623 93.8767 70.599 92.1374C70.6298 90.6772 70.5938 89.2154 70.5878 87.7537C70.5848 86.8874 70.317 86.2582 69.3 86.2439C69.1613 86.2417 69.0248 86.0939 68.8605 85.9964C69.3893 85.6064 74.4848 85.4647 76.6965 85.7474L76.839 88.1579L76.5893 88.2599C76.0748 87.7222 76.1385 86.6107 75.0743 86.6069C74.2613 86.6032 73.4483 86.5177 72.5753 86.4652C72.5775 87.4822 72.5775 88.4077 72.5775 89.5124ZM63.0923 89.9369C65.0498 90.0157 65.8268 89.4847 65.7803 88.1639C65.7345 86.8904 64.884 86.3767 63.0923 86.5732V89.9369Z" fill="#515151"/>
<path fill-rule="evenodd" clip-rule="evenodd" d="M8.66624 90.5116C9.41324 88.3014 10.1505 86.0889 10.9185 83.8861C11.0242 83.5831 11.283 83.3334 11.4712 83.0581C11.6572 83.3416 11.9115 83.6019 12.018 83.9131C12.7162 85.9524 13.3807 88.0014 14.0595 90.0474C14.1135 90.2116 14.1832 90.3699 14.3407 90.7741C15.0367 88.6644 15.681 86.7931 16.2637 84.9024C16.4662 84.2476 16.203 83.7744 15.441 83.6889C15.1897 83.6596 14.946 83.5614 14.6527 83.4834C15.1597 82.9216 19.1205 82.8804 19.773 83.4024C19.596 83.4864 19.455 83.6056 19.3095 83.6116C18.072 83.6596 17.499 84.4344 17.1465 85.5024C16.203 88.3599 15.2415 91.2106 14.2837 94.0636C14.184 94.3599 14.0587 94.6471 13.9447 94.9381L13.629 94.9606L10.9447 86.8449L8.23049 94.9359L7.96499 94.9524C7.82624 94.6516 7.65599 94.3599 7.55474 94.0471C6.67949 91.3614 5.81549 88.6719 4.94924 85.9839C4.57799 84.8296 4.20674 83.6821 2.69024 83.6086C2.59124 83.6041 2.50049 83.4369 2.40524 83.3461C2.52374 83.2486 2.64224 83.0664 2.76224 83.0649C4.46674 83.0469 6.17124 83.0471 7.87574 83.0656C7.99424 83.0664 8.11049 83.2509 8.22824 83.3499C8.10149 83.4444 7.98899 83.5816 7.84724 83.6251C6.48224 84.0376 6.38399 84.1959 6.81374 85.5196C7.35599 87.1944 7.91474 88.8624 8.46674 90.5341L8.66624 90.5116Z" fill="#3179A1"/>
<path fill-rule="evenodd" clip-rule="evenodd" d="M49.113 83.4376C49.3223 83.2569 49.4393 83.0671 49.5533 83.0694C51.771 83.1024 54.0068 82.9996 56.2013 83.2546C58.2773 83.4954 59.427 85.4439 58.8008 87.2739C58.2398 88.9156 56.856 89.4294 55.2908 89.5719C54.63 89.6326 53.9588 89.5816 53.1728 89.5816C53.2425 90.6714 53.2778 91.6666 53.379 92.6551C53.4638 93.4906 54.0263 93.8251 54.8213 93.8926C55.0005 93.9084 55.164 94.1086 55.3343 94.2241C55.1468 94.3186 54.9608 94.4941 54.7718 94.4964C53.1278 94.5174 51.484 94.5179 49.8405 94.4979C49.6433 94.4956 49.4483 94.3336 49.2525 94.2459C49.416 94.1221 49.5765 93.8986 49.7445 93.8919C50.8418 93.8499 51.2535 93.1689 51.267 92.2156C51.3 89.9049 51.297 87.5941 51.2685 85.2834C51.2565 84.3009 50.7818 83.6724 49.7145 83.6289C49.5555 83.6229 49.398 83.5314 49.113 83.4376ZM53.2553 88.4671C55.2668 88.6756 56.0325 88.4836 56.517 87.5919C57.003 86.6979 57.0045 85.7626 56.43 84.9174C55.6358 83.7481 54.4208 84.0939 53.2553 84.0519V88.4671Z" fill="#4D4D4D"/>
<path fill-rule="evenodd" clip-rule="evenodd" d="M23.307 94.8473C21.51 94.7693 20.046 94.2053 18.9615 92.8621C17.4218 90.9556 17.6558 88.3666 19.4948 86.7181C21.4785 84.9406 24.7583 84.8641 26.7945 86.5898C28.173 87.7591 28.8263 89.2396 28.3778 91.0546C27.8715 93.1021 26.427 94.1986 24.4643 94.6966C24.0548 94.7993 23.6228 94.8083 23.307 94.8473ZM26.715 90.1606L26.547 90.0503C26.4353 89.5186 26.37 88.9711 26.2035 88.4566C25.722 86.9783 24.714 86.2478 23.2313 86.2448C21.7538 86.2418 20.76 86.9761 20.277 88.4701C19.848 89.7983 19.9035 91.1146 20.5643 92.3551C21.5505 94.2061 24.186 94.5533 25.476 92.9071C26.0775 92.1398 26.313 91.0846 26.715 90.1606Z" fill="#3279A1"/>
<path fill-rule="evenodd" clip-rule="evenodd" d="M92.061 85.7379L92.7307 85.1514V88.4334L92.5365 88.5796C92.3797 88.3584 92.163 88.1581 92.0752 87.9114C91.632 86.6701 90.6765 85.9966 89.586 86.3236C89.2117 86.4354 88.7617 86.8104 88.662 87.1561C88.5802 87.4381 88.8757 87.9961 89.1652 88.1866C89.9212 88.6846 90.7635 89.0536 91.5757 89.4639C93.3427 90.3579 93.9742 91.5976 93.3765 93.0159C92.7697 94.4566 90.9292 95.2021 89.28 94.6456C88.8255 94.4911 88.4047 94.2376 87.984 94.0374L87.3412 94.8819L87.057 94.7949C87.057 93.6871 87.0502 92.5794 87.0682 91.4716C87.0697 91.3644 87.2295 91.2601 87.3157 91.1544C87.4507 91.3179 87.6517 91.4619 87.711 91.6494C88.1032 92.8914 88.8585 93.7164 90.2047 93.8544C90.972 93.9331 91.722 93.8386 91.9882 92.9641C92.2312 92.1639 91.6732 91.7124 91.074 91.3711C90.4147 90.9961 89.718 90.6894 89.043 90.3436C88.7467 90.1914 88.4445 90.0406 88.1782 89.8449C87.2355 89.1496 86.8635 88.1476 87.1425 87.1314C87.3915 86.2231 88.2847 85.4536 89.3902 85.4214C90.2085 85.3981 91.0365 85.6089 92.061 85.7379ZM79.8592 94.0081C79.7347 94.2556 79.6657 94.4634 79.5375 94.6239C79.4602 94.7199 79.2705 94.8114 79.17 94.7799C79.0747 94.7499 78.9735 94.5594 78.9712 94.4379C78.9552 93.4629 78.9555 92.4889 78.972 91.5159C78.9735 91.3966 79.1055 91.2804 79.1775 91.1626C79.3155 91.2504 79.512 91.3074 79.5802 91.4341C79.707 91.6696 79.7362 91.9561 79.8472 92.2021C80.3482 93.3136 81.363 94.0089 82.527 93.8401C83.0137 93.7704 83.6145 93.4006 83.856 92.9866C84.1815 92.4309 83.7915 91.8586 83.2455 91.5429C82.5112 91.1184 81.7507 90.7366 80.9887 90.3646C79.266 89.5239 78.5392 88.1356 79.1565 86.8254C79.77 85.5226 81.654 84.9804 83.2282 85.6584C83.4202 85.7409 83.6025 85.8459 83.7532 85.9239L84.5617 85.2594C84.6465 85.4971 84.7005 85.5789 84.7012 85.6606C84.7072 86.5726 84.705 87.4839 84.705 88.3951L84.4672 88.5541C84.309 88.3516 84.0892 88.1724 84.003 87.9436C83.5732 86.7946 82.893 86.1579 81.8955 86.2794C81.4275 86.3356 80.8312 86.6574 80.601 87.0429C80.2635 87.6091 80.751 88.0636 81.2647 88.3396C81.987 88.7289 82.7265 89.0836 83.4592 89.4519C85.2727 90.3616 85.911 91.6254 85.2847 93.0699C84.675 94.4769 82.7752 95.2051 81.147 94.6276C80.724 94.4784 80.3317 94.2376 79.8592 94.0081Z" fill="#505050"/>
<path fill-rule="evenodd" clip-rule="evenodd" d="M48.9458 1.04633C28.86 0.687831 12.0773 16.9861 12.072 36.7501C12.066 57.0826 28.0755 73.3043 48.1298 73.2743C67.9973 73.2451 84.0788 57.0841 84.0788 37.1491C84.078 17.5381 68.07 1.38758 48.9458 1.04633ZM48.0848 71.4616C29.0903 71.4661 13.8143 56.0648 13.815 36.9113C13.8158 18.2513 29.3288 2.80133 48.0705 2.79458C67.1445 2.78858 82.3417 18.2851 82.3357 37.7348C82.3297 56.0971 66.7305 71.4578 48.0848 71.4616ZM66.381 26.9513C65.6355 25.7228 64.719 24.5311 64.2975 23.1916C63.8175 21.6676 63.4193 19.9328 63.6735 18.4051C64.1055 15.8146 66.0923 14.5283 68.7825 14.2823C54.0645 0.62258 30.936 5.51183 22.4138 20.3536C25.6943 20.2013 28.8263 20.0026 31.9605 19.9606C32.5538 19.9523 33.5355 20.4533 33.675 20.9183C33.987 21.9571 33.114 22.3193 32.1855 22.3906C31.2098 22.4671 30.2325 22.5398 29.0993 22.6261L40.3005 55.9966C40.5698 55.5563 40.6808 55.4326 40.7295 55.2878C42.801 49.0966 44.8845 42.9091 46.9035 36.6998C47.088 36.1336 46.9965 35.3836 46.794 34.8016C45.726 31.7183 44.4465 28.7018 43.5098 25.5811C42.8685 23.4443 42.0188 22.0621 39.4935 22.3096C39.063 22.3516 38.5388 21.4261 38.0565 20.9476C38.6393 20.6003 39.2175 19.9606 39.8055 19.9516C44.9482 19.8728 50.0918 19.8743 55.2345 19.9561C55.824 19.9658 56.4023 20.6228 56.9858 20.9791C56.475 21.4456 56.0355 22.1446 55.4385 22.3246C54.4815 22.6133 53.4203 22.5586 52.275 22.6606L63.4898 56.0236C65.1893 50.3806 66.7702 45.1981 68.3062 40.0036C69.6787 35.3671 68.8613 31.0358 66.381 26.9513ZM39.5393 66.1118C39.4703 66.3121 39.4665 66.5341 39.4133 66.8671C45.7568 68.6251 51.9758 68.4983 58.3433 66.3533L48.6173 39.7133C45.504 48.7613 42.519 57.4358 39.5393 66.1118ZM34.638 64.9073L19.9845 24.7103C13.374 37.6231 18.4028 57.3248 34.638 64.9073ZM75.477 23.3551C75.2745 25.6006 75.4155 28.1003 74.7713 30.3766C73.254 35.7406 71.3993 41.0123 69.6135 46.2983C67.6725 52.0433 65.6535 57.7628 63.6683 63.4936C72.996 57.9646 78.1215 49.8038 78.9375 39.0773C79.4025 32.9723 77.2965 24.5183 75.477 23.3551Z" fill="#494949"/>
</svg>
